<svg xmlns="http://www.w3.org/2000/svg" width="4096" height="4096" viewBox="0 0 4096 4096"><defs><linearGradient id="a" x1="2120.061" x2="2429.026" y1="1892.209" y2="2399.04" gradientUnits="userSpaceOnUse"><stop offset="0" stop-color="#242D7B"/><stop offset="1" stop-color="#5B4BAE"/></linearGradient></defs><path fill="url(#a)" d="M2306.87 1776.79c165.56-57.01 402.13-97.14 564.62-17.14 72.46 35.67 137.35 101.65 163.15 179.22 12.04 36.19 15.83 84.18 1 120.23-.11-14.33 1.2-27.57-2.58-41.59l-2.24 14.51c-.75 9.84-1.17 19.25-4.27 28.7l-2.06 1.13c-1.98-3.47-2.97-6.02-3.67-9.96-2.94-7.15-6.11-14.15-10.19-20.74-33.86-54.63-89.03-99.32-151.94-114.19l-13.86 2.67c-160.02-39.89-318.49-18.75-471.23 38.41-52.04 19.49-104.82 42.84-152.48 71.51-4.84 2.88-9.56 5.94-14.16 9.19-20.33 27.16-54.44 37.67-81.23 57.47-57.59 42.57-107.99 97.33-147.53 157.06-6.31 7.79-16.85 22.2-17.6 32.26l-.16 1.68c-5.24 3.14-8.22 5.22-11.97 10.21-13.04 26.72-28.17 53.58-37.6 81.84-1.96 15.77-13.77 60.75-4.69 73.44.39.54.92.96 1.38 1.44l4.33-.83c1.69-2.5 2.62-3.82 3.34-6.81 1.29 3.2 2.18 5.78 2.51 9.22 3.77-1.96 7.96-3.43 11.88-5.08 3.57 8.19 7.41 16.35 10.7 24.66-3.21 7.1-6.33 14.24-10.01 21.12 3.01 9.11 6.47 17.69 6.39 27.4-2.93 5.13-3.73 6.27-3.71 12.09 4.91 9.87 9.98 15.15 19.93 19.88l3.61-1.27c2.35-9.23-2.71-15.38-5.48-23.85-1.68-5.17-2.68-10.99.22-15.92 3.1-5.25 6.94-6.19 12.35-7.78 4.65 3.81 11.14 8.15 12.28 14.44 2.75 15.23-7.7 21.17 5.06 34.65.36 1.02.74 2.03 1.07 3.06 1.94 6.14.8 13.25.33 19.57 11.6 18.65 48.58 28.72 69.15 33.46 25.77 5.94 62.87 8.37 87.76-1.68-1.86-3.55-.47-2.19-4.34-3.91l18.68-4.04-.54 1.52 2.56 1.73c19.68-3.13 39.89-13.31 58.26-20.92.2.7.35 1.42.61 2.11 1.5 4.05 4.22 7.11 6.9 10.43.91 25.52-36.22 47.46-24.86 74.15-.57.46-1.15.92-1.72 1.39-64.45 53.61-100.09 133.01-198.83 123.71a93.6 93.6 0 0 1-16.45-2.91c-44.75-9.89-83.02-29.98-122.26-52.87-69.07-44.47-141.14-90.58-186.73-160.55-13.62-26.81-23.79-54.46-29.06-84.11-1.95-26.35 3.63-61.31-5.33-85.81l-1.68-2.75-3.44-7.37c-.83-20.99-6.93-40.45-5.42-61.82 4.6-15.41 6.63-32.11 9.53-47.94 3.95-16.79 10.11-35.12 10.97-52.34l1.47-.85c8.58 10 19.49 18.9 29.15 27.92 28.17-69.92 81.15-140.8 137.23-191.75 24.06-26.83 52.91-50.98 80.71-73.84 110.87-91.16 237.35-166.72 374.97-209.33 12.99-3.52 24.9-8.12 37.22-13.53"/><path fill="#262075" d="M1909.84 2714.18c-13.55-25.62-25.18-51.87-31.39-80.3-14.84-68-.45-135.82 15.63-202.1 4.11-16.91 7.35-37.69 16.79-52.52-1.96 15.77-13.77 60.75-4.69 73.44.39.54.92.96 1.38 1.44l4.33-.83c1.69-2.5 2.62-3.82 3.34-6.81 1.29 3.2 2.18 5.78 2.51 9.22 3.77-1.96 7.96-3.43 11.88-5.08 3.57 8.19 7.41 16.35 10.7 24.66-3.21 7.1-6.33 14.24-10.01 21.12 3.01 9.11 6.47 17.69 6.39 27.4-2.93 5.13-3.73 6.27-3.71 12.09 4.91 9.87 9.98 15.15 19.93 19.88l3.61-1.27c2.35-9.23-2.71-15.38-5.48-23.85-1.68-5.17-2.68-10.99.22-15.92 3.1-5.25 6.94-6.19 12.35-7.78 4.65 3.81 11.14 8.15 12.28 14.44 2.75 15.23-7.7 21.17 5.06 34.65.36 1.02.74 2.03 1.07 3.06 1.94 6.14.8 13.25.33 19.57 11.6 18.65 48.58 28.72 69.15 33.46 25.77 5.94 62.87 8.37 87.76-1.68-1.86-3.55-.47-2.19-4.34-3.91l18.68-4.04-.54 1.52 2.56 1.73c19.68-3.13 39.89-13.31 58.26-20.92.2.7.35 1.42.61 2.11 1.5 4.05 4.22 7.11 6.9 10.43.91 25.52-36.22 47.46-24.86 74.15-.57.46-1.15.92-1.72 1.39-64.45 53.61-100.09 133.01-198.83 123.71a93.6 93.6 0 0 1-16.45-2.91c-44.75-9.89-83.02-29.98-122.26-52.87 18.96-.33 38.35-15.01 52.56-26.68"/><path fill="#613AA3" d="M1857.28 2740.86c18.96-.33 38.35-15.01 52.56-26.68 27.95 37.62 53.16 61.5 96.68 79.72l-26.98-.17c-44.75-9.89-83.02-29.98-122.26-52.87"/><path fill="#129CDB" d="M1963.62 2506.97c4.65 3.81 11.14 8.15 12.28 14.44 2.75 15.23-7.7 21.17 5.06 34.65-.02.86-.02 1.72-.06 2.58-.26 6.59.03 9.55-4.75 14.05-3.2.2-5.15.98-8.04-.8-6.02-3.71-10.11-10.6-11.58-17.37 2.35-9.23-2.71-15.38-5.48-23.85-1.68-5.17-2.68-10.99.22-15.92 3.1-5.25 6.94-6.19 12.35-7.78"/><path fill="#129CDB" d="M1929.62 2450.64c3.57 8.19 7.41 16.35 10.7 24.66-3.21 7.1-6.33 14.24-10.01 21.12 3.01 9.11 6.47 17.69 6.39 27.4-2.17.7-3.79.58-6.04.54-.64-.73-1.3-1.44-1.93-2.19-8.92-10.75-18.28-42.85-16.72-56.9.65-5.9 1.28-6.04 5.73-9.55 3.77-1.96 7.96-3.43 11.88-5.08"/><path fill="#613AA3" d="M2306.87 1776.79c165.56-57.01 402.13-97.14 564.62-17.14 72.46 35.67 137.35 101.65 163.15 179.22 12.04 36.19 15.83 84.18 1 120.23-.11-14.33 1.2-27.57-2.58-41.59-.95-3.54-.07-8.41-.25-12.17-2.77-55.63-42.76-108.23-82.58-144.09-92.64-83.43-215.36-95.36-334.44-89.01l-17.45-42.63c-78.52 3.86-160.75 21.84-235.96 44.05-11.73 3.46-45.56 16.86-55.3 12.15z"/><path fill="#262075" d="M1813.97 2073.49c24.06-26.83 52.91-50.98 80.71-73.84 110.87-91.16 237.35-166.72 374.97-209.33.51.7 1.01 1.4 1.53 2.09 2.45 3.25 1.49 2.05 4.72 5.28-22.21 15.57-46.66 28.97-69.86 43.08l-125.18 76.29-160.23 97.68c-29.02 17.71-57.78 36.58-87.47 53.1-5.89 3.29-9.89 5.06-16.61 5.47-.86.05-1.72.12-2.58.18"/><path fill="#4763BE" d="m1948.47 2297.42-1.65-4.52c1.8-8.79 6-16.53 10.4-24.27 13.11-23.05 30.46-44.99 47.03-65.68 109.97-137.3 273.49-235.57 442.31-281.38 110.8-30.07 225.75-40.42 339.61-23.6 23.64 3.5 51.52 6.92 72.52 18.99l-13.86 2.67c-160.02-39.89-318.49-18.75-471.23 38.41-52.04 19.49-104.82 42.84-152.48 71.51-4.84 2.88-9.56 5.94-14.16 9.19-20.33 27.16-54.44 37.67-81.23 57.47-57.59 42.57-107.99 97.33-147.53 157.06-6.31 7.79-16.85 22.2-17.6 32.26l-.16 1.68c-5.24 3.14-8.22 5.22-11.97 10.21"/><path fill="#4763BE" d="M1625.62 2338.45c4.6-15.41 6.63-32.11 9.53-47.94 4.48 23.38 15.16 94.89 3.49 113.65-1.33 2.13-1.96 2.13-4.16 3.48l-3.44-7.37c-.83-20.99-6.93-40.45-5.42-61.82"/><path fill="#613AA3" d="M3030.82 2032.02c-.75 9.84-1.17 19.25-4.27 28.7l-2.06 1.13c-1.98-3.47-2.97-6.02-3.67-9.96 1.37-9.71 2.9-13.33 10-19.87"/><path fill="#0785C7" d="M2328.49 1168.31c7.08-14.57 16.52-28.68 24.51-42.86 18.65-33.1 35.7-67.16 48.07-103.15a324 324 0 0 0 12.84-48.714c2.25-12.813 1.81-29.18 6.97-40.899l2.77 1.04c21.22 31.863 36.25 72.453 45.91 109.503 12.17 29.7 19.22 62.99 24.26 94.67 22.11 122.6 11.44 216.19-60.42 320.06-30.08 43.47-67.99 82.05-105.68 118.92-50.09 48.99-101.58 97.12-157.06 139.98-73.59 56.86-151.8 107.43-223.74 166.47-83.91 68.87-167.87 147.54-232.95 234.83-17.21 23.09-30.35 48.37-46.71 71.74-6.14 16.07-15.3 30.67-19.67 47.42l-1.47.85c-.86 17.22-7.02 35.55-10.97 52.34-2.9 15.83-4.93 32.53-9.53 47.94-1.51 21.37 4.59 40.83 5.42 61.82-13.29-20.73-21.45-46.04-30.64-68.89-23.18-57.61-49.35-113.74-56.84-176.12-5.95-12.71-9.78-27.6-12.27-41.4-38.64-213.64 193.96-427.98 344.97-546.66 100.99-79.37 211.29-146.43 308.01-231.31 57.22-50.23 101-105.14 144.22-167.58"/><path fill="#1D5099" d="M1560.88 2185.98c6.89-52.68 35.16-161.08 60.13-206.26 2.41 22.54 6.88 40.16 17.47 60.21.37.53.73 1.07 1.11 1.6 8.03 11.25 33.29 21.32 30.05 36.38-.52 2.43-1.36 4.79-2.05 7.17-6.03 20.85 5.59 39.37 4.35 60.04-1.62 26.84-19.4 57.91-27.62 83.83l1.8 9.22c-.86 17.22-7.02 35.55-10.97 52.34-2.9 15.83-4.93 32.53-9.53 47.94-1.51 21.37 4.59 40.83 5.42 61.82-13.29-20.73-21.45-46.04-30.64-68.89-23.18-57.61-49.35-113.74-56.84-176.12 7.17 7.45 12.28 21.31 17.32 30.72"/><path fill="#0785C7" d="M1625.62 2338.45c-6.1-38.51 7.74-73.24 18.7-109.5l1.8 9.22c-.86 17.22-7.02 35.55-10.97 52.34-2.9 15.83-4.93 32.53-9.53 47.94"/><path fill="#1D5099" d="M2328.49 1168.31c7.08-14.57 16.52-28.68 24.51-42.86 18.65-33.1 35.7-67.16 48.07-103.15a324 324 0 0 0 12.84-48.714c2.25-12.813 1.81-29.18 6.97-40.899l2.77 1.04c-.13.659-.26 1.317-.38 1.978-3.63 20.747 6.89 39.72 6.89 60.227-.01 59.608-52.25 138.238-99.87 171.238-.59.41-1.2.76-1.8 1.14"/><path fill="#1674B5" d="M1638.48 2039.93c27.74 18.07 54.96 35.69 86.28 47.09-11.39 13.99-61.12 84.66-61.18 100.66l3.68 2.22c-6.14 16.07-15.3 30.67-19.67 47.42l-1.47.85-1.8-9.22c8.22-25.92 26-56.99 27.62-83.83 1.24-20.67-10.38-39.19-4.35-60.04.69-2.38 1.53-4.74 2.05-7.17 3.24-15.06-22.02-25.13-30.05-36.38-.38-.53-.74-1.07-1.11-1.6"/><path fill="#1D5099" d="M2469.56 1043.23c12.17 29.7 19.22 62.99 24.26 94.67-8.51 1.09-7.79 10.24-9.07 17.17-6.61 35.53-24.1 65.84-47.92 92.6 28.99-74.55 40-123.96 32.73-204.44"/><path fill="#613AA3" d="M2088.74 1068.18c36.7 20.1 74.62 37.89 113.54 53.25 7.68 6.96 7.65 14.39 8.09 24.1 1.01 22.05.88 51.47-4.16 73.18-.49 13.82-.57 28.65-5.14 41.86-.99 7.8-3.69 13.75-6.98 20.84-105 95.93-249.26 178.33-382.56 226.86-65.07 23.69-132.56 41.18-200.18 55.88-53.92 11.72-117.53 8.17-165.44 35.92-7.13-3.95-14.71-8.62-22.47-11.15-18.27-5.97-41.44-5.47-60.63-7.06-21.56-1.79-43.6-4.44-64.82-8.62-45.49-8.95-89.08-23.94-131.48-42.53-36.63-18.79-67.36-40.18-96.61-69.24-28.39-31.52-49.7-66.73-57.41-108.94-7.78-42.62-2.66-94.14 22.31-130.56 2.66 5.73 2.81 10.54 3.07 16.7l2.3 1.43c21.59 56.13 93.34 99.05 145.87 122.26 165.5 73.1 345.84 44.24 508.7-18.48a951.6 951.6 0 0 0 127.08-62.2c54.53-27.06 108.09-68.42 152.34-110.04.78-.1 1.58-.1 2.35-.29 7.09-1.72 11.03-8.07 18.29-9.97-.95 1.98-2.79 2.58-4.61 3.73l1.81 2.75-7.47 7.7c19.85-5.89 51.53-44.63 63.64-60.82 7.33-7.31 15.53-16.2 19.6-25.78 7.96-3.88 12.12-11.77 18.2-17.97z"/><path fill="#2B398C" d="M2088.74 1068.18c36.7 20.1 74.62 37.89 113.54 53.25 7.68 6.96 7.65 14.39 8.09 24.1 1.01 22.05.88 51.47-4.16 73.18-.6-18.88-.63-37.78-.08-56.67-102.65 86.19-206 165.59-327.81 223.41-40.08 19.02-82.14 34.34-123.21 51.13-57.74 23.61-114.86 48.2-174.71 66.16a442 442 0 0 1-75.77 14.93c-23.77 2.52-73.58-.92-92.84 8.08-70.46.78-132.27-15.57-196.25-44.18-5.09-13.59-7.2-26.09-5.59-40.59 1.35-12.16 4.39-25.79 14.78-33.53 18.62-13.87 71.14 9.19 93.44 12.77 195.64 31.32 424.14-69.92 583.33-178.05 28.54-19.38 52.06-44.54 80.03-64.49l3-2.12c19.85-5.89 51.53-44.63 63.64-60.82 7.33-7.31 15.53-16.2 19.6-25.78 7.96-3.88 12.12-11.77 18.2-17.97z"/><path fill="#262075" d="M2206.13 1162.04c-.55 18.89-.52 37.79.08 56.67-.49 13.82-.57 28.65-5.14 41.86-49.65 43.94-100.48 86.08-156.91 121.17-86.28 53.65-175.87 90.29-271.34 123.86-103.42 36.38-210.71 70.24-321.86 63.47-23.85-1.45-88.4-3.69-104.77-20.88-3.67-3.85-3.81-5.15-4.04-10.13 5.44-5.82 14.04-5.87 21.7-6.07 56.87-1.48 103.92 7.13 160.7-11.65-17.85-.17-35.25 3.43-52.97 4.88-19.83 1.62-39.91.93-59.79.53 19.26-9 69.07-5.56 92.84-8.08 25.64-2.76 51-7.75 75.77-14.93 59.85-17.96 116.97-42.55 174.71-66.16 41.07-16.79 83.13-32.11 123.21-51.13 121.81-57.82 225.16-137.22 327.81-223.41"/><path fill="#1674B5" d="M2025.51 522.419c50.02-15.89 104.51 1.95 149.36 24.985 95.68 49.14 190 127.352 223.98 232.971 32.26 100.279 4.26 205.44-42.71 296.065-38.58 74.42-94.92 153.48-162.05 204.97 3.29-7.09 5.99-13.04 6.98-20.84 4.57-13.21 4.65-28.04 5.14-41.86 5.04-21.71 5.17-51.13 4.16-73.18-.44-9.71-.41-17.14-8.09-24.1a1003 1003 0 0 1-113.54-53.25c1.97-4.76 1.71-6.97.67-11.97 1.07-.08 2.18.02 3.22-.23 4.64-1.13 5.45-3.14 7.43-6.97-2.31-4.6-2.78-4.11-7.73-5.81l-7.85-3.58a989 989 0 0 1 22.01-35.86c7.21-1.99 11-.47 17.59 2.47 2.36.87.84.64 4.51-.99l.69-4.03-3.01-3.754-11.22-5.631-6.72-4.948-5.4-1.001-.96 4.386c-3.6-1.533-7.12-3.926-10.54-5.865l-4.08-1.776c-5.19-5.894-13.08-10.415-20.62-12.589l-2.7-7.726c-6.29-4.196-8.99-9.409-12.08-16.053 7.41-12.548 15.09-24.905 20.74-38.375-3.58-1.17-4.85.434-8.18 1.922-5.42 9.991-12.48 28.718-24.04 31.876-.62.17-1.27.227-1.91.341-4.07-5.164-8.53-10.066-12.84-15.034l-.34-1.594c.75-4.744 2.6-9.061 4.31-13.52 5.05-7.374 11.83-17.779 13.93-26.541 1.03-4.295.57-4.908-1.74-8.318l-7.25 1.778c-7-7.418-12.55-15.304-18.24-23.71 5.83-17.473 11.36-41.555 22.64-56.375 5.1-6.695 8.15-6.492 15.94-7.489l3.34-5.508c-6.71-23.784-9.07-37.21-21.68-59.724l1.68-2.617c-1.89-5.214-3.81-8.104-2.81-13.702 7.98.831 14.93 9.905 19.76 15.944 3.34 4.177 6.28 8.634 9.16 13.135l13.42 6.646 2.65-2.726c-6.83-14.17-14.35-23.806-25.64-34.505l-27.29-26.706c-17.34-6.724-31.41-7.946-49.62-5.31-68.47 15.667-129.62 53.773-188 91.425-16.9 10.9-33.99 23.858-51.66 33.311-8.23-7.193-18.49-11.076-28.36-15.468 36.44-21.202 70.73-44.887 105.08-69.314 8.66-6.564 21.35-14.299 24.26-25.012 3.45-4.204 12.24-7.698 17.03-10.707 21.06-13.246 47.92-29.929 61.32-51.54 1.64-2.642.64-3.485-.03-6.38 2.23-2.761 7.22-4.691 10.44-6.206 32.51-15.299 49.37-71.929 90.27-90.861z"/><path fill="#1D5099" d="M2025.51 522.419c50.02-15.89 104.51 1.95 149.36 24.985 95.68 49.14 190 127.352 223.98 232.971 32.26 100.279 4.26 205.44-42.71 296.065-38.58 74.42-94.92 153.48-162.05 204.97 3.29-7.09 5.99-13.04 6.98-20.84 4.57-13.21 4.65-28.04 5.14-41.86 5.04-21.71 5.17-51.13 4.16-73.18-.44-9.71-.41-17.14-8.09-24.1 9.48-10.11 14.58-26.96 19.96-39.72 26.97-64.02 48.32-128.768 61.12-197.128-2.73-22.533 5.13-47.15 5.83-70.167.8-26.253-6.35-52.2-4.92-78.513-9.93-51.101-25.56-103.851-65.94-139.534-27.44-24.25-69.86-47.534-105.02-57.749-8.46-2.458-9.97 2.059-17.61-.131-30.92-8.862-34.46-18.407-70.19-16.069"/><path fill="#4763BE" d="M2284.27 735.902c19.46 42.284 15.73 104.319-.31 147.147-.2.514-.4 1.022-.6 1.533-2.73-22.533 5.13-47.15 5.83-70.167.8-26.253-6.35-52.2-4.92-78.513"/><path fill="#2B398C" d="M1917.58 622.456c2.23-2.761 7.22-4.691 10.44-6.206 32.51-15.299 49.37-71.929 90.27-90.861.99 1.17 1.67 2.729 2.99 3.511 3.76 2.22 14.6 3.199 19.33 4.263 20.31 4.566 44.82 12.011 61.76 24.4 16.19 11.837 27.62 27.749 38.32 44.427-2.27 34.424-9.22 65.853-20.54 98.427-12.16-6.771-24.42-14.521-38.27-17.175-10.75-1.447-20.65-6.094-31.36-7.82-10.03-1.618-14.85.07-22.96 6.029-17.34-6.724-31.41-7.946-49.62-5.31-68.47 15.667-129.62 53.773-188 91.425-16.9 10.9-33.99 23.858-51.66 33.311-8.23-7.193-18.49-11.076-28.36-15.468 36.44-21.202 70.73-44.887 105.08-69.314 8.66-6.564 21.35-14.299 24.26-25.012 3.45-4.204 12.24-7.698 17.03-10.707 21.06-13.246 47.92-29.929 61.32-51.54 1.64-2.642.64-3.485-.03-6.38"/><path fill="#13183F" d="M2038.31 723.365c-1.89-5.214-3.81-8.104-2.81-13.702 7.98.831 14.93 9.905 19.76 15.944 3.34 4.177 6.28 8.634 9.16 13.135l13.42 6.646c3.5 10.005 7.38 20.006 10.26 30.203l-1.01 18.237c8.25 3.84 11.7 6.582 14.95 15.436.55 1.522 1.08 3.054 1.57 4.594 2.21 1.031 3.85 1.761 6.26 2.245 9.18 1.491 12.11 4.106 18.17 10.899l6.22 3.442c6.46 5.904 13.02 13.04 20.36 17.768 3.22 3.315 6.84 6.477 9.27 10.417 5.53 4.776 11.07 9.331 15.78 14.943-3.03 9.969-6.13 19.889-8.45 30.052.67 4.052 1.93 7.068-.94 10.612-.55.67-1.33 1.101-2 1.652l-9.4-9.187c-7.86 11.696-12.51 24.187-16.69 37.559l8.96 10.426.51 3.082-1.71 2.071-12.52-8.021-4.9-2.094c-6.46 13.35-12.68 27.348-24.2 37.153l-5.4-1.001-.96 4.386c-3.6-1.533-7.12-3.926-10.54-5.865l-4.08-1.776c-5.19-5.894-13.08-10.415-20.62-12.589l-2.7-7.726c-6.29-4.196-8.99-9.409-12.08-16.053 7.41-12.548 15.09-24.905 20.74-38.375-3.58-1.17-4.85.434-8.18 1.922-5.42 9.991-12.48 28.718-24.04 31.876-.62.17-1.27.227-1.91.341-4.07-5.164-8.53-10.066-12.84-15.034l-.34-1.594c.75-4.744 2.6-9.061 4.31-13.52 5.05-7.374 11.83-17.779 13.93-26.541 1.03-4.295.57-4.908-1.74-8.318l-7.25 1.778c-7-7.418-12.55-15.304-18.24-23.71 5.83-17.473 11.36-41.555 22.64-56.375 5.1-6.695 8.15-6.492 15.94-7.489l3.34-5.508c-6.71-23.784-9.07-37.21-21.68-59.724z"/><path fill="#050502" d="M2038.31 723.365c-1.89-5.214-3.81-8.104-2.81-13.702 7.98.831 14.93 9.905 19.76 15.944 3.34 4.177 6.28 8.634 9.16 13.135l13.42 6.646c3.5 10.005 7.38 20.006 10.26 30.203l-1.01 18.237c8.25 3.84 11.7 6.582 14.95 15.436.55 1.522 1.08 3.054 1.57 4.594-2.38 10.365-3.83 21.971-11.7 29.784-8.63-4.674-15.12-9.589-22.37-16.156l-2.85 9.385c7.54 4.24 14.75 8.45 21.63 13.731-7.02 20.213-15.01 39.701-23.81 59.198-5.42 9.991-12.48 28.718-24.04 31.876-.62.17-1.27.227-1.91.341-4.07-5.164-8.53-10.066-12.84-15.034l-.34-1.594c.75-4.744 2.6-9.061 4.31-13.52 5.05-7.374 11.83-17.779 13.93-26.541 1.03-4.295.57-4.908-1.74-8.318l-7.25 1.778c-7-7.418-12.55-15.304-18.24-23.71 5.83-17.473 11.36-41.555 22.64-56.375 5.1-6.695 8.15-6.492 15.94-7.489l3.34-5.508c-6.71-23.784-9.07-37.21-21.68-59.724z"/><path fill="#129CDB" d="M2066.69 836.871c7.54 4.24 14.75 8.45 21.63 13.731-7.02 20.213-15.01 39.701-23.81 59.198-5.42 9.991-12.48 28.718-24.04 31.876-.62.17-1.27.227-1.91.341-4.07-5.164-8.53-10.066-12.84-15.034l-.34-1.594a438.7 438.7 0 0 0 41.31-88.518"/><path fill="#129CDB" d="m2058.31 785.706 3.93 1.249c5.45 10.679 1.58 22.129-1.9 32.877-5.8 17.951-12.25 45.107-25.71 58.956-7-7.418-12.55-15.304-18.24-23.71 5.83-17.473 11.36-41.555 22.64-56.375 5.1-6.695 8.15-6.492 15.94-7.489z"/><path fill="#0785C7" d="M2087.09 793.828c8.25 3.84 11.7 6.582 14.95 15.436.55 1.522 1.08 3.054 1.57 4.594-2.38 10.365-3.83 21.971-11.7 29.784-8.63-4.674-15.12-9.589-22.37-16.156 4.82-11.984 10.61-22.792 17.55-33.658"/><path fill="#129CDB" d="M2038.31 723.365c-1.89-5.214-3.81-8.104-2.81-13.702 7.98.831 14.93 9.905 19.76 15.944 3.34 4.177 6.28 8.634 9.16 13.135 1.44 3.033 2.83 6.088 4.18 9.163 1.79 4.201 5.36 12.208 3.62 16.579l-3.72-.945c-13.15-11.948-21.35-25.002-30.19-40.174"/><path fill="#129CDB" d="M2072.69 907.878c11.64 1.712 33.04 17.81 40.01 27.431.63.875 1.21 1.79 1.81 2.686l5.88 1.195c4.54 3.255 8.62 6.116 12.14 10.534-6.46 13.35-12.68 27.348-24.2 37.153l-5.4-1.001-.96 4.386c-3.6-1.533-7.12-3.926-10.54-5.865l-4.08-1.776c-5.19-5.894-13.08-10.415-20.62-12.589l-2.7-7.726c-6.29-4.196-8.99-9.409-12.08-16.053 7.41-12.548 15.09-24.905 20.74-38.375"/><path fill="#129CDB" d="M2120.39 939.19c4.54 3.255 8.62 6.116 12.14 10.534-6.46 13.35-12.68 27.348-24.2 37.153l-5.4-1.001c-1.53-2.945-2.64-5.329-2.67-8.755-.16-14.103 11.58-27.64 20.13-37.931"/><path fill="#1674B5" d="m2114.51 937.995 5.88 1.195c-8.55 10.291-20.29 23.828-20.13 37.931.03 3.426 1.14 5.81 2.67 8.755l-.96 4.386c-3.6-1.533-7.12-3.926-10.54-5.865l-4.08-1.776c-5.19-5.894-13.08-10.415-20.62-12.589l-2.7-7.726c10.37 2.841 18.44 7.998 27.41 13.677 7.2-12.804 14-26.405 23.07-37.988"/><path fill="#129CDB" d="M2136.1 941.995c-1.61-1.127-4.3-2.941-5.67-4.229-5.83-5.469-4.6-11.858-5.19-19.344-1.73 3.134-3.48 5.708-5.79 8.441-5.67-.449-7.95-.748-12.66-4.32-2.36-4.431-2.95-7.525-2.22-12.42 1.52-10.095 7.09-28.051 15.32-34.261l3.76 1.285c5.03 6.842 6.86 15.499 9.32 23.536l7.05-4.813c6.2.148 7.9 2.103 12.96 5.5l5.9 5.331c-7.86 11.696-12.51 24.187-16.69 37.559z"/><path fill="#1674B5" d="m2152.98 901.37 5.9 5.331c-7.86 11.696-12.51 24.187-16.69 37.559l-6.09-2.265c7.97-7.843 12.96-29.8 16.88-40.625"/><path fill="#0785C7" d="M2103.61 813.858c2.21 1.031 3.85 1.761 6.26 2.245 9.18 1.491 12.11 4.106 18.17 10.899l6.22 3.442c6.46 5.904 13.02 13.04 20.36 17.768-5.06 8.636-6.48 18.541-11.46 26.9-7.81-2.947-13.11-6.257-18.72-12.474l-3.78-2.493c-7.41-3.162-14.17-7.113-21.12-11.156l-7.63-5.347c7.87-7.813 9.32-19.419 11.7-29.784"/><path fill="#0785C7" d="M2134.26 830.444c6.46 5.904 13.02 13.04 20.36 17.768-5.06 8.636-6.48 18.541-11.46 26.9-7.81-2.947-13.11-6.257-18.72-12.474 1.96-11.49 4.34-21.804 9.82-32.194"/><path fill="#1D5099" d="M2103.61 813.858c2.21 1.031 3.85 1.761 6.26 2.245-4.12 10.874-7.37 21.643-10.33 32.886l-7.63-5.347c7.87-7.813 9.32-19.419 11.7-29.784"/><path fill="#1D5099" d="m2128.04 827.002 6.22 3.442c-5.48 10.39-7.86 20.704-9.82 32.194l-3.78-2.493c1.41-11.507 4.19-22.037 7.38-33.143"/><path fill="#0785C7" d="M2143.16 875.112c4.98-8.359 6.4-18.264 11.46-26.9 3.22 3.315 6.84 6.477 9.27 10.417 5.53 4.776 11.07 9.331 15.78 14.943-3.03 9.969-6.13 19.889-8.45 30.052-4.81-4.683-9.84-9.105-14.86-13.561-5.56-4.58-9.15-9.02-13.2-14.951"/><path fill="#129CDB" d="M2143.16 875.112c4.98-8.359 6.4-18.264 11.46-26.9 3.22 3.315 6.84 6.477 9.27 10.417l-7.53 31.434c-5.56-4.58-9.15-9.02-13.2-14.951"/><path fill="#129CDB" d="M2094.64 857.086c6.85 4.426 12.82 10.667 18.83 16.168-6.18 12.529-11.86 25.358-17.75 38.031-6.1-3.765-11.83-8.142-17.65-12.321z"/><path fill="#13183F" d="M2027.56 681.451c8.11-5.959 12.93-7.647 22.96-6.029 10.71 1.726 20.61 6.373 31.36 7.82 40.3 28.142 77.1 51.076 104.28 93.756l3.58 5.547 1.7-1.543.02-2.592c.11-6.967.09-11.059 3.99-16.907 1.94 24.425 4.98 54.101-4.75 77.272l-3.53 2.767c-2.83-1.052-3.74-1.382-5.92-3.606-1.52 4.896-2.56 8.528-5.72 12.659 3.93 5.564 8.23 10.593 9.52 17.44l-1.26 3.744-4.12 1.793c-4.71-5.612-10.25-10.167-15.78-14.943-2.43-3.94-6.05-7.102-9.27-10.417-7.34-4.728-13.9-11.864-20.36-17.768l-6.22-3.442c-6.06-6.793-8.99-9.408-18.17-10.899-2.41-.484-4.05-1.214-6.26-2.245-.49-1.54-1.02-3.072-1.57-4.594-3.25-8.854-6.7-11.596-14.95-15.436l1.01-18.237c-2.88-10.197-6.76-20.198-10.26-30.203l2.65-2.726c-6.83-14.17-14.35-23.806-25.64-34.505z"/><path fill="#08080D" d="M2088.1 775.591c4.27 2.943 8.37 5.706 12.98 8.077 8.47 4.357 18.5 18.468 27.45 17.586l2.13-1.758c6.35 3.735 13.43 20.152 23.33 27.63l7.04 8.878c4.87 4.823 9.84 9.569 14.5 14.591 3.93 5.564 8.23 10.593 9.52 17.44l-1.26 3.744-4.12 1.793c-4.71-5.612-10.25-10.167-15.78-14.943-2.43-3.94-6.05-7.102-9.27-10.417-7.34-4.728-13.9-11.864-20.36-17.768l-6.22-3.442c-6.06-6.793-8.99-9.408-18.17-10.899-2.41-.484-4.05-1.214-6.26-2.245-.49-1.54-1.02-3.072-1.57-4.594-3.25-8.854-6.7-11.596-14.95-15.436z"/><path fill="#129CDB" d="M2080.49 742.662c8.87 3.459 12.66 19.523 23.15 20.386 14.79 1.216 19.51 8.75 29.02 18.947-1.07 5.784-2.59 11.598-2 17.501l-2.13 1.758c-8.95.882-18.98-13.229-27.45-17.586-4.61-2.371-8.71-5.134-12.98-8.077-2.88-10.197-6.76-20.198-10.26-30.203z"/><path fill="#0785C7" d="m2132.66 781.995 1.8-.004c6.81 8.006 13.59 16.218 21.93 22.707 3.57 4.241 7.35 8.324 10.31 13.03-1.44 6.143-2.35 12.842-5.67 18.276l-7.04-8.878c-9.9-7.478-16.98-23.895-23.33-27.63-.59-5.903.93-11.717 2-17.501"/><path fill="#129CDB" d="M2156.39 804.698c3.57 4.241 7.35 8.324 10.31 13.03-1.44 6.143-2.35 12.842-5.67 18.276l-7.04-8.878c-.05-7.855-.49-14.986 2.4-22.428"/><path fill="#050502" d="M2054.85 708.157c4.6 1.87 9.09 3.29 13 6.395 21.6 20.938 45.59 49.123 71.27 64.401l-4.66 3.038-1.8.004c-9.51-10.197-14.23-17.731-29.02-18.947-10.49-.863-14.28-16.927-23.15-20.386-6.83-14.17-14.35-23.806-25.64-34.505"/><path fill="#262075" d="M2067.85 714.552c14.35-.632 27.55 13.198 37.54 22.351 10.99 10.071 31.35 26.805 33.73 42.05-25.68-15.278-49.67-43.463-71.27-64.401"/><path fill="#0785C7" d="M2166.7 817.728c5.77 6.549 10.68 12.291 14.55 20.208-1.52 4.896-2.56 8.528-5.72 12.659-4.66-5.022-9.63-9.768-14.5-14.591 3.32-5.434 4.23-12.133 5.67-18.276"/><path fill="#262075" d="M2140.69 601.99c31.79 51.561 50.44 98.648 54.76 159.513-3.9 5.848-3.88 9.94-3.99 16.907l-.02 2.592-1.7 1.543-3.58-5.547c-27.18-42.68-63.98-65.614-104.28-93.756 13.85 2.654 26.11 10.404 38.27 17.175 11.32-32.574 18.27-64.003 20.54-98.427"/><path fill="#129CDB" d="m2132.53 949.724 4.9 2.094 12.52 8.021c-7.09 12.261-12.58 28.516-23.68 37.617l-11.22-5.631-6.72-4.948c11.52-9.805 17.74-23.803 24.2-37.153"/><path fill="#0785C7" d="m2132.53 949.724 4.9 2.094c-7 13.696-14.19 26.981-22.38 40.007l-6.72-4.948c11.52-9.805 17.74-23.803 24.2-37.153"/><path fill="#129CDB" d="M2106.49 1003.76c7.21-1.99 11-.47 17.59 2.47-8.05 13.42-17.47 29.65-31.75 36.97l-7.85-3.58a989 989 0 0 1 22.01-35.86"/><path fill="#129CDB" d="m2158.88 906.701 9.4 9.187c-5.75 12.785-10.59 26.45-17.13 38.798l-8.96-10.426c4.18-13.372 8.83-25.863 16.69-37.559"/><path fill="#050502" fill-opacity=".059" d="M1728.35 1095.5c12.11 9.09 11.22 22.21 21.63 30.78.21.18.33.44.49.67-14.35 7.4-35.6 15.13-44.01 29.19.06 3.99.29 6.33 2.07 9.93l10.88 27.57c22.35-10.84 44.92-21.33 66.36-33.91l1.44 4.85 6.94 3.51c-.8 3.81-.09 2.44-1.35 4.43-10.71 1.55-19.79 6.69-29.3 11.54-2.32 2.2-2.6 3.31-5.86 3.67-6.51.73-9.63 1.14-14.41 5.67-7.05 4.71-14.05 7.8-21.93 10.88l-3.22 4.5-4.87-2.95-2.8 1.59c-9.99 5-20.01 9.92-30.06 14.77 5.74 12.77 11.71 25.18 18.49 37.43 11.22-4.44 22.53-8.71 33.43-13.88 1.77-1.74 1.07-.74 2.18-3.66.29-.78.56-1.57.84-2.35l4.87.26c10.67.93 24.94-7.69 34.75-12.2 1.55-2.92 3.22-5.16 5.38-7.66 5.06 2.23 12.69.49 17.62-1.71 5.06-2.25 8.37-6.65 9.99-11.88 2.04-6.62-2.74-13.81-5.55-19.69l3.52 1.68c4.5-8.93 6.75-10.61 15.68-13.68-4.88 3.89-9.53 5.77-10.13 12.55-.48 5.47.93 10.67 4.54 14.87 3.56 4.16 6.93 5.45 12.16 5.7l3.93 1.38c-5.85 5.93-11.69 9.8-19.98 11.48l-1.24 1.3c-2.83 1.4-6.06 3.52-9.1 4.25-10.2 1.2-16.57 8.43-26.79 10.01l-1.13 2.03c-4.53 2.68-9 5.19-13.76 7.46-3.47 1.65-5.42 2.91-7.77 6.08l-.14 5.78c-1.81 1.79-3.57 3.91-5.74 5.24-5.5-4.72-5.63-5.8-13.01-5.14-11.13.99-16.61 5.28-23.21 13.84-1.28 6.56.58 9.81 2.65 16.07l-1.47 2.84c2.47 8.51 7.35 15.7 11.89 23.24 22.79-6.93 46.93-19.27 67.92-30.51 5.82-3.11 11.03-7.92 16.81-10.76 5.03-2.47 7.47-.93 12.33-5.56l17.24-12.3 1.56-3.4 7.12-.99c3.77-3.28 6.81-4.85 11.47-6.63-2.88 11.48-27.35 28.04-35.88 38a951.6 951.6 0 0 1-127.08 62.2c.08-4.37.08-4.99-2.15-8.72-7.24-2.89-14.91-2.12-22.52-1.28-1.93.22-3.86.48-5.79.64l-1.88.13c-.32-14.71-8.16-29.18-17.02-40.68-15.88 4.33-31.68 8.97-47.09 14.79 3.88 14.57 8.05 29.55 15.67 42.69-3.54-.63-6.89-1.09-10.5-1.23-1.17 4.46-.2 4.19-4.47 6.84-4.59-14.71-8.74-28.61-14.8-42.85-11.65 2.17-27.91 3.71-37.86 10.37-3.06 2.05-2.36 4.37-2.86 7.75l-5.29-.68-1.94-3.17c-1.87-3-3.53-4.81-6.45-6.87-2.25 1.73-2.47 1.18-2.37 4.54.02.9 1.03 5.05 1.26 6.04-15.05-1.09-28.41 6.24-43.11 6.43l.14-4.88-6.07-4.7.31-4.6c1.27.28 3.11.75 4.49.89 11.45 1.1 33.48-.94 42.09-9.53 5.52-5.51 7.52-11.86 6.98-19.52-.55-7.84-3.35-13.15-9.25-18.31-13.33-5.04-36.43 3.06-50.29 6.13l-1.74-4.52c-4.74-.49-7.56.02-11.41 3.16-4.12 3.35-4.1 4.86-5.02 9.84-9.87-7.26-36.24-1.39-48.73-.7 5.79-4.85 8.51-5.7 16.07-6.31 5.36-.43 9.72-.98 14.86-2.53l.6-3.35c-.62-.94-1.27-1.86-1.86-2.82-5.52-8.97-5.45-28.88-2.89-38.95.84-3.33.72-1.26.83-4.9.02-.64-.02-1.28-.02-1.93v.02c-4.04.09-6.91.4-10.7-1.21-.72-.31-1.39-.73-2.08-1.09 14.2-3.17 28.1-7.46 42.4-10.17.45-.04.91-.01 1.34-.13 6.73-1.97 13.25-3.05 19.97-4.91 8.64-1.6 22.27-2.68 29.43-7.83 5.08-3.65 4.45-6.42 4.83-12.1l5.01 1.49 2.2 7.49c5.77-.59 10.91-2.14 16.42-3.83 4.49 1.9 7.83 3.4 12.77 3.71l2.53-2.54-4-10.57c22.38-.53 46.55-12.27 67.41-20.03 28.2-10.31 96.27-30.67 114-52.03.27-7.71-4.52-15.08-7.84-21.86m-82.61 79.2c7.57 13.11 12.66 26.08 18.13 40.14.65-5.29 1.52-9.47 3.38-14.53-.55-8.24-8.68-20.91-12.3-28.55 7.59-3.72 14.59-7.69 23.09-8.72 6.88 2.16 7.64 3.76 12.15 9.12.41-5.37.47-6.11-2.06-10.82-5.59-3.28-10.77-2.64-16.85-1.07-5.96 1.52-10.32 3.48-15.27 7.05-.82 2.96-1.18 4.93-1.3 8.07l-2.54 1.6-2.77-.77c-8.62-2.29-12.82-3.75-20.88.95-3.42 2-6.74 3.91-9.55 6.72 9.43-1.81 17.93-5.57 26.77-9.19"/><path fill="#7D4AC2" d="M1437.74 1235.51c14.33-2.48 28.89-9.16 43.21-4.27 5.53 4.36 7.11 8.96 9.63 15.25-1.49 5.96-1.12 6.06 1.54 11.66-.67 3.33-1.38 4.98-3.65 7.64-9.42 11.02-32.48 11.73-46.04 12.87-2.47-14.21-3.37-28.79-4.69-43.15"/><path fill="#613AA3" d="M1571.31 1260.6c2.19.31 4.59.53 6.67 1.38 10.79 4.42 14.51 25.78 17.41 35.74-10.84 3.54-22.06 6.28-33.07 9.32-7.43 1.4-10.05 2.86-17.08-.3-7.44-9.62-7.3-24.57-8.82-36.38 11.33-4.19 23.19-6.8 34.89-9.76"/><path fill="#613AA3" d="M1692.35 1276.19c.59.11 1.21.12 1.78.32 9.1 3.15 16.89 29.79 20.16 38.08-9.88 5.52-20.71 9.24-31.24 13.34l-3.9-.33c-11.07-7.21-14.66-26.88-18.53-38.84 10.32-4.81 21.06-8.61 31.73-12.57"/><path fill="#613AA3" d="m1661.77 1228.09 6.15-.23c11.29 6.89 16.07 24.24 20.82 35.95l-28.24 11.91c-2.33.85-5.01 1.04-7.45 1.44-11.2-6.14-14.92-25.75-18.75-37.08 8.91-4.41 18.33-8.06 27.47-11.99"/><path fill="#613AA3" d="M1490.96 1225.99c8.95-2.87 18.64-7.32 28.1-5.78 4.56 2.43 7.25 4.57 8.77 9.59 2.79 9.19 3.91 19.78 5.48 29.26-11.95 3.55-24.19 8.88-36.46 4.1l-4.73-5.01c-2.66-5.6-3.03-5.7-1.54-11.66.91-7.12.94-13.36.38-20.5"/><path fill="#613AA3" d="M1576.74 1200.26c9.91-3.75 20.1-6.86 30.15-10.2 5.08 11.94 8.83 24.21 14.86 35.76-3 6.65-5.75 9.88-12.65 12.69-7 2.86-14.64 4.02-22.05 5.28-4.63-13.92-7.06-29.2-10.31-43.53"/><path fill="#7D4AC2" d="m1587.05 1243.79 1.59-8.86c2.43-3.18 4.57-6.19 8.2-8.13 7.88-4.21 16.65-2.86 24.91-.98-3 6.65-5.75 9.88-12.65 12.69-7 2.86-14.64 4.02-22.05 5.28"/><path fill="#613AA3" d="m1560.11 1206.31 2.73-.41c5.53 3.04 8.97 12.41 11.58 18.34 2.84 6.46 3.9 12.69.52 19.28-4.5 8.79-15.74 9.49-24.4 11.37-3.55.38-3.82-.29-6.87-1.87-6.03-10.91-7.31-26.59-9.89-38.9z"/><path fill="#613AA3" d="M1645.74 1174.7c7.57 13.11 12.66 26.08 18.13 40.14-6.98 3.92-15.45 9.73-23.53 10.51-5.02.49-9.45-1.5-12.94-5.08-6.98-7.15-8.62-26.9-8.43-36.38 9.43-1.81 17.93-5.57 26.77-9.19"/><path fill="#613AA3" d="m1618.12 1245.98 3.3-.48c10.74 6.51 14.15 25.95 17.91 37.49-8.35 3.74-16.97 7-25.45 10.47l-5.84.05c-10.19-6.27-12.83-27.42-15.68-38.4z"/><path fill="#613AA3" d="M1654.95 1171.76c7.59-3.72 14.59-7.69 23.09-8.72 6.88 2.16 7.64 3.76 12.15 9.12 4.13 9.48 7.78 18.62 10.62 28.59-7.65 3.85-15.81 9.36-24.56 8.97-5.1-2.79-5.92-4.62-9-9.41-.55-8.24-8.68-20.91-12.3-28.55"/><path fill="#050502" fill-opacity=".333" d="M1618.97 1183.89c2.81-2.81 6.13-4.72 9.55-6.72 8.06-4.7 12.26-3.24 20.88-.95l2.77.77 2.54-1.6c.12-3.14.48-5.11 1.3-8.07 4.95-3.57 9.31-5.53 15.27-7.05 6.08-1.57 11.26-2.21 16.85 1.07 2.53 4.71 2.47 5.45 2.06 10.82-4.51-5.36-5.27-6.96-12.15-9.12-8.5 1.03-15.5 5-23.09 8.72 3.62 7.64 11.75 20.31 12.3 28.55-1.86 5.06-2.73 9.24-3.38 14.53-5.47-14.06-10.56-27.03-18.13-40.14-8.84 3.62-17.34 7.38-26.77 9.19"/><path fill="#F9F8F8" d="m1114.53 1521.04 27.3 16.85c.05 42.61-4.15 90.75 4.07 132.58l.15 1.98c1.08 13.21 5.74 26.42 5.81 39.56.08 14.29-3.46 29.49-5.5 43.62-2.81 19.46-4.36 38.42-4.42 58.07l2.02 356.84c49.16 29.99 99.5 58.07 149.13 87.27A14143 14143 0 0 1 1631.83 2462c1.44 10.08 1.97 19.91 2.27 30.06l-24.42-12.64c-64.7-41.88-131.85-79.85-198.21-119.01a21451 21451 0 0 0-296.22-173.88l-.23-380.25z"/><path fill="#F9F8F8" d="M1067.45 1482.91c8.26 6.82 16.24 13.57 23.77 21.21q2.415 333.525.93 667.05l-.34 28.41c109.55 66.46 222.14 127.89 332.08 193.77l138.1 82.95c17.89 10.74 40.47 28.26 59.85 34.74 5.07 3.69 10.11 7.31 15.41 10.67 2.65 8.33 8.9 21.5 6.13 29.56-5.3 1.25-9.29-1.42-13.95-3.63-12.09-9.55-28.85-17.23-42.3-25.11a8296 8296 0 0 1-96.27-56.9c-140.05-85.44-281-169.38-422.84-251.81-1.96-151.14-.24-302.51-.21-453.67.01-76.95.78-153.89-2.15-230.8.38-15.41.16-31.12 1.79-46.44"/><path fill="#F9F8F8" d="M2944.8 2117.83c6.98 4.34 14.15 8.5 20.64 13.54-1.42 29.25-1.29 58.34-.67 87.61-90.35 55.43-181.1 110.19-272.26 164.27a15361 15361 0 0 1-488.1 283.44l-7.87 4.85c-11.36-26.69 25.77-48.63 24.86-74.15-2.68-3.32-5.4-6.38-6.9-10.43-.26-.69-.41-1.41-.61-2.11 41.87-19.76 80.97-44.6 120.5-68.57 25.2-14.96 50.57-29.63 76.1-44.01l13.92 17.38c5.69-2.95 11.29-6.16 16.91-9.25-.31 1.1-.72 2.17-.92 3.29-.92 5.4-.56 6.47 2.56 10.53 15.89 2.79 32.49-14.52 47.46-18.73 1.15-.32 2.3-.6 3.45-.91 68.19-37.03 134.34-78.96 200.98-118.79 83.18-49.72 167.46-98.4 249.13-150.52-1.03-28.74-3.99-58.93.82-87.44"/><path fill="#08080D" d="M2334.39 2516.28c25.2-14.96 50.57-29.63 76.1-44.01l13.92 17.38c5.69-2.95 11.29-6.16 16.91-9.25-.31 1.1-.72 2.17-.92 3.29-.92 5.4-.56 6.47 2.56 10.53 15.89 2.79 32.49-14.52 47.46-18.73 1.15-.32 2.3-.6 3.45-.91-28.68 19.02-58.91 36.1-88.47 53.72-47.49 28.29-95.35 56.7-145.1 80.85-19.72 14.98-44.6 32.35-56.77 54.49l.88 3.05-7.87 4.85c-11.36-26.69 25.77-48.63 24.86-74.15-2.68-3.32-5.4-6.38-6.9-10.43-.26-.69-.41-1.41-.61-2.11 41.87-19.76 80.97-44.6 120.5-68.57"/><path fill="#1D5099" d="M2334.39 2516.28c-.32 10.74-1.62 17.4-6.3 27-15.15 12.35-63.73 46.61-67.63 63.97-.14.62-.11 1.27-.16 1.9-19.72 14.98-44.6 32.35-56.77 54.49l.88 3.05-7.87 4.85c-11.36-26.69 25.77-48.63 24.86-74.15-2.68-3.32-5.4-6.38-6.9-10.43-.26-.69-.41-1.41-.61-2.11 41.87-19.76 80.97-44.6 120.5-68.57"/><path fill="#1674B5" d="M2334.39 2516.28c25.2-14.96 50.57-29.63 76.1-44.01l13.92 17.38c-32.84 16.59-63.42 37.31-96.32 53.63 4.68-9.6 5.98-16.26 6.3-27"/><path fill="#F9F8F8" d="M2423.45 776.452c27.31 7.557 120.16 68.545 150.69 86.317l394.52 228.311-.14 459.55c-.21 79.2 1.88 159.17-1.39 238.26-9.16-.33-16.57-8.97-23.03-14.78l-.13-669.97a37278 37278 0 0 0-513.04-296.629z"/><path fill="#F9F8F8" d="M2434.57 834.722c58.88 28.131 114.7 66.476 170.99 99.703a26075 26075 0 0 0 316.43 183.255l-.35 448.08c-.02 37.21.21 74.43.68 111.65.28 26.16 2.58 54.15-2 79.93l-22.37-10.76.17-615.36c-155.35-89.51-311.98-177.566-465.45-270.238z"/><path fill="#13183F" d="M1970.32 1062.3c15.21-17.09 41.45-61.97 62.61-68.059 6.06-1.746 8.72 1.185 13.64 4.103 4.49 6.596 8.48 12.116 14.55 17.346l-3.66.79c2.12 1.45 4.65 2.76 6.25 4.77 1.58 5.44 3.19 9.87 6.12 14.79 6.43.02 9.14-.98 14.32 3.21.13.1.22.25.33.37l7.85 3.58c4.95 1.7 5.42 1.21 7.73 5.81-1.98 3.83-2.79 5.84-7.43 6.97-1.04.25-2.15.15-3.22.23 1.04 5 1.3 7.21-.67 11.97l-2.77 2.81c-6.08 6.2-10.24 14.09-18.2 17.97-4.07 9.58-12.27 18.47-19.6 25.78-12.11 16.19-43.79 54.93-63.64 60.82l7.47-7.7-1.81-2.75c1.82-1.15 3.66-1.75 4.61-3.73-7.26 1.9-11.2 8.25-18.29 9.97-.77.19-1.57.19-2.35.29-44.25 41.62-97.81 82.98-152.34 110.04 8.53-9.96 33-26.52 35.88-38 6.08-2.85 11.78-6.4 17.56-9.82l3.62-2.63a982 982 0 0 0-16.6-31.67c8.55-6.4 16.28-11.74 26.25-15.88l-.29-1.21c4.4-4.6 6.64-8.56 9.21-14.36-3.58-6.16-7.1-11.49-11.77-16.89-.65-2.65-2.01-5.69-1.27-8.42 4.08-15.13 36.75-33.97 49.75-42.97l3.24-3.74c10.13-12.14 21.51-22.88 32.92-33.79"/><path fill="#050502" d="m2045.36 1080.28 3.17-1.5 3.86 1.46 5.17 2.64 10.21 6.08c-4.07 9.58-12.27 18.47-19.6 25.78-12.11 16.19-43.79 54.93-63.64 60.82l7.47-7.7-1.81-2.75c1.82-1.15 3.66-1.75 4.61-3.73-7.26 1.9-11.2 8.25-18.29 9.97-.77.19-1.57.19-2.35.29-44.25 41.62-97.81 82.98-152.34 110.04 8.53-9.96 33-26.52 35.88-38 6.08-2.85 11.78-6.4 17.56-9.82l3.62-2.63a982 982 0 0 0-16.6-31.67c8.55-6.4 16.28-11.74 26.25-15.88 3.72-.28 5.39-1.45 8.33 1.15 5.73 5.05 9.68 16.11 13.69 22.72l4.59-2.28c10.95-1.93 21.97-13.64 30.13-20.83 1.32-2.08 3.95-3.97 5.78-5.64 8.15-5.91 15.85-13.18 23.56-19.69l3.04-3.6 22.01-22.78 3.62-4.64c8.35-5.87 13.96-13.56 20.25-21.46l2.93-2.8c7.56-7.29 13.39-14.6 18.9-23.55"/><path fill="#0785C7" d="M2046.78 1088.67c.88 8.63 1 17.4 1.39 26.07-12.11 16.19-43.79 54.93-63.64 60.82l7.47-7.7-1.81-2.75c1.82-1.15 3.66-1.75 4.61-3.73-7.26 1.9-11.2 8.25-18.29 9.97-.77.19-1.57.19-2.35.29a713 713 0 0 0 72.62-82.97"/><path fill="#1674B5" d="M1888.53 1183.68c3.72-.28 5.39-1.45 8.33 1.15 5.73 5.05 9.68 16.11 13.69 22.72-3.55 10.57-22.11 18.58-31.67 23.68a982 982 0 0 0-16.6-31.67c8.55-6.4 16.28-11.74 26.25-15.88"/><path fill="#0785C7" d="M1970.32 1062.3c15.21-17.09 41.45-61.97 62.61-68.059 6.06-1.746 8.72 1.185 13.64 4.103 4.49 6.596 8.48 12.116 14.55 17.346l-3.66.79-11.29 9.02c-18.36 22.16-36.21 45.44-57.47 64.92-6.24-9.3-12.37-18.67-18.38-28.12"/><path fill="#0785C7" d="M2057.46 1016.48c2.12 1.45 4.65 2.76 6.25 4.77 1.58 5.44 3.19 9.87 6.12 14.79 6.43.02 9.14-.98 14.32 3.21.13.1.22.25.33.37l7.85 3.58c4.95 1.7 5.42 1.21 7.73 5.81-1.98 3.83-2.79 5.84-7.43 6.97-1.04.25-2.15.15-3.22.23 1.04 5 1.3 7.21-.67 11.97l-2.77 2.81c-6.08 6.2-10.24 14.09-18.2 17.97l-10.21-6.08-5.17-2.64-3.86-1.46-3.17 1.5c-6.48-7.06-13.31-13.54-20.36-20.02l6.41-3.48c5.18-9.54 11.16-17.16 18.15-25.39l-3.39-5.89z"/><path fill="#08080D" d="M2057.46 1016.48c2.12 1.45 4.65 2.76 6.25 4.77 1.58 5.44 3.19 9.87 6.12 14.79 6.43.02 9.14-.98 14.32 3.21.13.1.22.25.33.37l7.85 3.58c4.95 1.7 5.42 1.21 7.73 5.81-1.98 3.83-2.79 5.84-7.43 6.97-1.04.25-2.15.15-3.22.23l-4.83-2.72c-6.45-2.59-7.41-3.07-14.18-1.82l-4.92.14-15.92-20.42-3.39-5.89z"/><path fill="#129CDB" d="M2070.4 1051.67c6.77-1.25 7.73-.77 14.18 1.82l4.83 2.72c1.04 5 1.3 7.21-.67 11.97l-2.77 2.81c-6.08 6.2-10.24 14.09-18.2 17.97l-10.21-6.08-5.17-2.64c4.06-10.53 11.47-19.46 18.01-28.57"/><path fill="#0785C7" d="m2084.58 1053.49 4.83 2.72c1.04 5 1.3 7.21-.67 11.97l-2.77 2.81c-6.08 6.2-10.24 14.09-18.2 17.97l-10.21-6.08c.62-.06 1.25-.03 1.85-.17 11.1-2.69 20.41-19.97 25.17-29.22"/><path fill="#1D5099" d="m2065.48 1051.81 4.92-.14c-6.54 9.11-13.95 18.04-18.01 28.57l-3.86-1.46-3.17 1.5c-6.48-7.06-13.31-13.54-20.36-20.02l6.41-3.48c5.84 5.7 10.96 12.38 16.25 18.59z"/><path fill="#1674B5" d="M1885.68 1151.22c-.65-2.65-2.01-5.69-1.27-8.42 4.08-15.13 36.75-33.97 49.75-42.97 5.74 8.43 11.28 17.11 17.45 25.24-10.89 12.98-35.2 39.6-52.14 43.05-.66.14-1.35 0-2.02-.01-3.58-6.16-7.1-11.49-11.77-16.89"/><path fill="#1674B5" d="M1937.4 1096.09c10.13-12.14 21.51-22.88 32.92-33.79 6.01 9.45 12.14 18.82 18.38 28.12-9.82 11.43-19.49 23.24-32.61 31.05l-4.48 3.6c-6.17-8.13-11.71-16.81-17.45-25.24z"/><path fill="#1D5099" d="m1934.16 1099.83 3.24-3.74 18.69 25.38-4.48 3.6c-6.17-8.13-11.71-16.81-17.45-25.24"/><path fill="#1674B5" d="M1897.39 1176.57c10.03-6.01 19.6-12.84 29.27-19.41l18.61 27.28c-8.16 7.19-19.18 18.9-30.13 20.83-6.33-9.29-11.96-19.06-17.75-28.7"/><path fill="#1674B5" d="m1955.57 1131.91 19.04 27.2c-7.71 6.51-15.41 13.78-23.56 19.69-9.59-6.43-14.16-15.52-19.33-25.43z"/><path fill="#0785C7" d="m1959.52 1129.56 21.23-20.89c6.49 7.83 12.64 16.04 18.91 24.06l-22.01 22.78z"/><path fill="#0785C7" d="m2004.25 1084.76 19.28 21.87c-6.29 7.9-11.9 15.59-20.25 21.46-7.2-7.13-12.95-15.16-18.92-23.3z"/><path fill="#129CDB" d="M2025 1060.26c7.05 6.48 13.88 12.96 20.36 20.02-5.51 8.95-11.34 16.26-18.9 23.55l-17.87-23.48z"/><path fill="#F9F8F8" d="M1917.58 622.456c.67 2.895 1.67 3.738.03 6.38-13.4 21.611-40.26 38.294-61.32 51.54-4.79 3.009-13.58 6.503-17.03 10.707-8.21 3.798-16.52 7.391-24.3 12.024-51.74 29.35-101.46 62.548-152.92 92.562-123.3 71.925-247.82 142.114-369.85 216.181-22.85 14.5-46.63 29.72-71.24 41.05-10.07 4.64-23.04 10.59-34 6.49-2.63-3.87-3.7-6.63-2.3-11.41 2.12-7.26 8.58-12.59 14.41-16.94 16.6-12.38 36.84-21.09 54.78-31.53 37.28-21.697 74.14-44.179 111.19-66.262a14384 14384 0 0 1 552.55-310.792"/><path fill="#050502" fill-opacity=".027" d="M1959.6 2330.81c4.23-3.84 7.83-7.12 9.97-12.53.32-.82.62-1.65.95-2.47 10.32-25.07 51.74-95.21 78.23-104.21 4.68-1.59 9.09-3.09 13.57-.89-4 11.19-21.06 17.94-22.81 29 5.1 7.22 14.93 10.78 22.18 15.66 1.45.98 3.82 2.72 5.32 3.22 5.61 1.9 8.13-.2 12.7-2.88.18 5.29 1.14 5.93-2.13 10.4-4.26.06-8.14-.37-12.35-1-5.46 7.12 1.11 9.61-7 18.28l.97 3.45c.73.02 1.46.03 2.19.07 3.63.18 2.33.09 6.5 1.03l1.68 3.77c-14.46 2.39-20.88 11.05-29.01 22.66-11.67 16.66-20.26 35.86-22.57 56.12 1.09 5.69 2.51 8.13 5.88 12.62-5.65 6.59-11.23 13-17.44 19.08-11.61 11.37-16.32 21.94-18.18 37.93l-2.02-1.6c-3.47-6.78-5.2-10.38-12.95-12.76-5.65-1.74-10.3-2.93-16.24-1.94-4.16 3.24-5.01 3.91-5.61 9.56-2.22 20.92 15.15 17.14 1.23 43.11-2.9 5.41-4.78 9.23-2.22 15.36 2.68 6.39 8.11 10.2 14.17 12.99l-.99 2.13c-5.41 1.59-9.25 2.53-12.35 7.78-2.9 4.93-1.9 10.75-.22 15.92 2.77 8.47 7.83 14.62 5.48 23.85l-3.61 1.27c-9.95-4.73-15.02-10.01-19.93-19.88-.02-5.82.78-6.96 3.71-12.09.08-9.71-3.38-18.29-6.39-27.4 3.68-6.88 6.8-14.02 10.01-21.12-3.29-8.31-7.13-16.47-10.7-24.66 2.22-1.69 4.36-3.44 6.22-5.54 3.81-4.29 6.41-11.47 5.09-17.17-1.42-6.11-4.08-7.36-8.84-10.84 6.8-3.62 11.19-7.65 15.89-13.79 3.79-4.95 5.03-7.98 4.1-14.14-2.32-4.16-4.45-6.6-9.21-8.03-6.52-1.97-14.59-.87-19.91 3.54-3.38 2.81-5.48 6.83-5.25 11.28.41 8.13 4.12 14.55 10 19.81-5.35 1.65-8.46 2.26-11.75 7.28-4 6.09-2.23 16.84-.73 23.46-.72 2.99-1.65 4.31-3.34 6.81l-4.33.83c-.46-.48-.99-.9-1.38-1.44-9.08-12.69 2.73-57.67 4.69-73.44 9.43-28.26 24.56-55.12 37.6-81.84 3.75-4.99 6.73-7.07 11.97-10.21-.86 17.4-17.25 23.7-16.06 41.62-.32.9-.62 1.8-.95 2.7-4.77 12.65-14.47 17.31-12.2 32.58 3.03 4.12 4.38 6.68 9.91 7.55 4.89.76 10.39-1.42 13.84-4.84 6.04-5.98 5.77-13.19 4.87-20.9-.62-5.25-1.67-9.84-.25-15.11m31.77 47.25c6.62-3.25 12.47-6.98 14.19-14.75 1.02-4.59-.41-9.56-3.51-13.06-3.42-3.86-8.9-5.1-13.7-6.39-7.41 4.25-14.19 8.5-16.95 17.05-1.07 3.32-.02 5.28.74 8.54 5.97 6.91 10.74 7.26 19.23 8.61"/><path fill="#1674B5" d="M2030.11 2255.77c7.49.13 16.04 2.16 21.54 7.64 3.58 3.56 4.71 8.39 3.98 13.29-1.51 10.17-10.28 15.94-18.18 21.1-9.99-3.64-19.52-9.56-28.9-14.57 5.62-10.94 11.91-19.73 21.56-27.46"/><path fill="#1674B5" d="M1998.58 2297.52c6.36.65 13.16 2.2 18.82 5.33 4.42 2.44 7.59 5.86 8.29 11.09 1.17 8.77-5.84 15.25-11.15 21.19-6.94.88-13.46 1.27-19.59-2.72-3.53-2.3-5.76-5.33-6.37-9.65-1.48-10.5 4.13-17.28 10-25.24"/><path fill="#129CDB" d="M1969.5 2384.25c6.37.21 13.3.03 18.46 4.4 2.64 2.24 3.82 4.41 4.15 7.77.98 10.09-5.25 15.4-11.48 22.45-.62.1-1.25.25-1.88.31-3.86.36-8.86-.22-11.85-2.85-4.92-4.32-6.46-9.74-6.32-16.08.18-8.08 3.47-10.81 8.92-16"/><path fill="#1674B5" fill-opacity=".988" d="M1988.35 2343.86c4.8 1.29 10.28 2.53 13.7 6.39 3.1 3.5 4.53 8.47 3.51 13.06-1.72 7.77-7.57 11.5-14.19 14.75-8.49-1.35-13.26-1.7-19.23-8.61-.76-3.26-1.81-5.22-.74-8.54 2.76-8.55 9.54-12.8 16.95-17.05"/><path fill="#F9F8F8" d="M2897.81 2093.46c7.63 3.09 15.4 5.99 22.94 9.31l1.78 92.28-335.58 199.03c-48.54 28.65-96.53 58.69-145.63 86.32-5.62 3.09-11.22 6.3-16.91 9.25l-13.92-17.38a37820 37820 0 0 0 333.02-194.88l106.29-63.18c17.68-10.65 37.04-20.87 53.45-33.3-5.84-27.81-4.7-59.04-5.44-87.45"/><defs><linearGradient id="b" x1="1597.171" x2="1442.17" y1="739.229" y2="1088.255" gradientUnits="userSpaceOnUse"><stop offset="0" stop-color="#CDD6E3"/><stop offset="1" stop-color="#FDFBF8"/></linearGradient></defs><path fill="url(#b)" d="M1709.92 785.409c9.87 4.392 20.13 8.275 28.36 15.468L1491 945.868c-47.08 28.081-92.83 60.122-141.82 84.682-10.56 5.29-19.25 10.29-31.36 9.09-5.11-3.5-5.5-4.94-8.12-10.65 4.15-10.42 13.49-16.96 22.37-23.15 34.1-23.78 73.28-42.753 109.22-63.885z"/><path fill="#0785C7" d="M2226.09 2053.2c17.39-5.81 35.72-26.73 53.67-27.6 3.22-.16 3.74 1.89 5.67 4.1 3.53 9.37 7.36 20.04 2.56 29.69-5.4 10.86-22.5 15.36-31.73 22.95-7.47 6.14-1.17 14.14-8.48 21.18-4.02-1.61-5.57-4.77-7.04-8.77-1.81-4.88-.09-7.93 1.72-12.39 1-2.48.71-1.37.84-4.19-12.68 5.67-24.24 12.71-35.42 20.95 7.29 8.01 13.9 14.72 15.41 25.82-5.77 10.69-13.91 14.98-24.01 21.18-17.51 11.74-38.63 25.98-52.64 41.66l-2.59.53c-1.13-1.09-2.51-3-3.07-4.42-2.34-5.87-3.15-8.61-7.19-13.67-6.29-3.33-11.15-3.22-18.17-3.2l.05-2.88c-4.3-8.19-12.4-14.01-20.44-18.19 40.78-34.84 86.31-63.14 130.86-92.75"/><path fill="#1674B5" d="M2285.43 2029.7c3.53 9.37 7.36 20.04 2.56 29.69-5.4 10.86-22.5 15.36-31.73 22.95-7.47 6.14-1.17 14.14-8.48 21.18-4.02-1.61-5.57-4.77-7.04-8.77-1.81-4.88-.09-7.93 1.72-12.39 1-2.48.71-1.37.84-4.19l.79-3.95c12.74-8.66 26.18-13.88 39.62-21.2 3.51-5.71 1.84-16.65 1.72-23.32"/><path fill="#050502" fill-opacity=".039" d="m1814.96 703.107.04 12.988c-34.35 24.427-68.64 48.112-105.08 69.314l-268.63 156.546c-35.94 21.132-75.12 40.105-109.22 63.885-8.88 6.19-18.22 12.73-22.37 23.15-.27-3.96-.78-7.85-1.32-11.78-5.24-4.99-9.14-4.37-16.19-5.36 122.03-74.067 246.55-144.256 369.85-216.181 51.46-30.014 101.18-63.212 152.92-92.562"/><path fill="#129CDB" d="M1986 2256.13c25.73-45.42 68.92-78.5 109.23-110.18 8.04 4.18 16.14 10 20.44 18.19l-.05 2.88c-2.99 4.48-6.79 7.83-5.35 13.61 2.42 9.72 12.55 16.01 20.98 19.98-9.41 8.72-27.15 21.79-31.84 33.38-7.78 6.7-14.62 12.6-19.7 21.72-4.57 2.68-7.09 4.78-12.7 2.88-1.5-.5-3.87-2.24-5.32-3.22-7.25-4.88-17.08-8.44-22.18-15.66 1.75-11.06 18.81-17.81 22.81-29-4.48-2.2-8.89-.7-13.57.89-26.49 9-67.91 79.14-78.23 104.21-.33.82-.63 1.65-.95 2.47-2.14 5.41-5.74 8.69-9.97 12.53-5.13-.4-10.14-1.21-15.22-1.98-1.19-17.92 15.2-24.22 16.06-41.62l.16-1.68c9.3-9.16 17.27-19.23 25.4-29.4"/><path fill="#0785C7" d="M2083.68 2206.59c1.87.32 4.64.73 6.37 1.38 5.08 1.94 6.03 3.45 8.28 7.98-.42 7.17-3.85 10.96-7.99 16.43-5.65-2.64-7.18-3.11-10.87-8.37-.58-6.89 1.47-11.19 4.21-17.42"/><path fill="#1674B5" d="M2095.67 2183.61c.05 1.05.24 2.11.15 3.16-.44 5.48-8.65 11.41-12.45 14.92l-.62-3.86c2.33-6.96 7.33-9.97 12.92-14.22"/><path fill="#050502" fill-opacity=".016" d="M1069.9 1461.47c29.25 29.06 59.98 50.45 96.61 69.24-6.23.02-12.71-.85-18.14 2.67-9 43.83 4.07 92.61-2.47 137.09-8.22-41.83-4.02-89.97-4.07-132.58l-27.3-16.85.49 285.24c-.56-1.14-1.17-2.26-1.69-3.42-6.12-13.91-2.42-55.03-2.4-71.57.04-33.45 1.75-204.82-9.81-223.94-.52-.87-1.09-2.86-1.41-3.9-4.81 27.1-.74 81.72-.8 112.74l.04 367.23.02 113.14c0 19.69 1.35 40.73-.85 60.26-.66 5.82-2.31 9.75-5.97 14.35q1.485-333.525-.93-667.05c-7.53-7.64-15.51-14.39-23.77-21.21-1.63 15.32-1.41 31.03-1.79 46.44-1.19-1.04-1.37-.97-1.98-2.57-4.17-10.95-1.82-41.48 3.08-52.36 1.42-3.14 2.17-5.45 2.64-8.92.18-1.34.34-2.69.5-4.03"/><path fill="#4763BE" d="M2389.29 2048.68c8.47-2.92 16.53-6.57 25.62-5.8 5.62 2.82 10.6 7.92 12.37 14.14 1.39 4.9.04 9.34-2.57 13.52-9.55 15.33-50.93 29.94-66.96 40.25-14.03 6.23-39.68 13.3-50.57 23.09-10.51-1.64-16.8 5.79-26.16 8.54-2.04-9.08-10.22-18.56-15.39-26.3 19.78-15.7 44.8-23.66 64.05-39.03z"/><path fill="#050502" fill-opacity=".031" d="m2522.5 2008.74 6.86 1.08c3.23-1.78 5.89-3.61 8.83-5.8-.61 7.38-2.03 14.91 1.13 21.85 4.02 3.67 7.2 5.6 12.87 5.68 8.98.12 20.67-7.64 26.22-14.29 4-4.78 4.29-9.83 4.83-15.75l3.09 1.88c1.32 5.28 1.37 9.71 6.36 12.95 3.11 2.02 7.91 3.2 11.44 4.43-.84.33-1.67.71-2.53.99-3.32 1.09-4.77 1.09-8.06 1.05-4.47-.04-6.37.86-10.09 3.49-2.17 5.41-2.15 11.65-.35 17.16-16.22-3.92-50.73 5.51-64.82 14.56-4.76 3.05-8.95 7.34-10.49 12.94-1.52 5.51-.39 10.89 2.8 15.52 2.34 3.39 6.43 5.3 10.49 5.71 13.97 1.43 35.79-7.12 49.59-10.88l2.67 3.26c5.48.5 14.54-.62 18.16 3.03l.33 1.75-3.91 2.07c-19.23 1.65-35.5 4.19-51.89 15.45-.75-4.71-.58-5.56-3.83-8.95-11.18-3.28-21.76-1.94-32.38 2.66-1.37-8.33-2.1-20.03-8.74-26.01-4.86-4.39-11.61-3.97-17.59-2.84-27 5.08-82.25 26.41-98.64 49.35-.27-.3-.6-.54-.79-.89-1.34-2.48-2.02-4.96-1.66-7.76.08-.61.26-1.21.39-1.81l-4.48-.42 1.63 2.31c-4.54-2.58-7.08-2.23-12.19-1.72 16.03-10.31 57.41-24.92 66.96-40.25 2.61-4.18 3.96-8.62 2.57-13.52-1.77-6.22-6.75-11.32-12.37-14.14-9.09-.77-17.15 2.88-25.62 5.8 5.53-6.7 15.69-10.09 23.92-11.9 6.77 1.74 10.44 7 15.31 11.86 4.36-3.86 1.35-9.59 6.09-14.83.13 5.27 0 11 .83 16.2.86 5.34 3.53 7.47 7.54 10.64 18.15 3.37 41.16-5.93 57.69-13.32 9.45-4.22 22.56-11.35 25.65-22.11 1.78-6.19-1.14-11.12-3.82-16.48"/><path fill="#7D4AC2" d="M1616.61 1142.57c16.29-7.34 33.12-13.44 49.49-20.64 19.93-8.77 41.37-21.12 62.25-26.43 3.32 6.78 8.11 14.15 7.84 21.86-17.73 21.36-85.8 41.72-114 52.03-20.86 7.76-45.03 19.5-67.41 20.03-3.65-7.63-7.71-14.39-6.04-22.94 20.5-10.52 45.84-16.88 67.87-23.91"/><path fill="#613AA3" d="M1554.78 1189.42c-3.65-7.63-7.71-14.39-6.04-22.94 20.5-10.52 45.84-16.88 67.87-23.91-.78.91-1.53 1.85-2.33 2.73-11.9 13.04-32.66 12.73-45.47 23.26l3.14 10 2.81.4c.95-.74 1.88-1.52 2.85-2.23 10.63-7.76 31.9-8.24 44.58-7.34-20.86 7.76-45.03 19.5-67.41 20.03"/><defs><linearGradient id="c" x1="2060.306" x2="2162.95" y1="2284.406" y2="2305.003" gradientUnits="userSpaceOnUse"><stop offset="0" stop-color="#070602" stop-opacity="0"/><stop offset="1" stop-color="#070603" stop-opacity=".047"/></linearGradient></defs><path fill="url(#c)" d="M2166.25 2227.33c6.32-.74 10.29-2.15 16.03 1.69 1.24.83 2 2.06 2.84 3.23l-1.6 3.71c-3.47.95-6.64 1.33-10.21 1.61-25.09 23.85-50.55 48.78-70.24 77.37 6.84 4.7 15.03 9.25 21.06 14.86 1.78 7.91 6.91 10.12 13.02 14.97-7.51 11.71-18.94 25.25-20.06 39.51l-3.4-.06c-2.45-4.39-4.08-6.01-8.43-8.54 4.25-7.5 11.81-18.71 10.18-27.51-1.22-6.62-6.74-9.85-11.79-13.51l-1.51-2.11c-5.59-2.46-7.27-1.84-13.18-1.07-3.59-4.35-2.49-8.1-2.6-13.57 1.05-3.24 1.23-5.49 1.4-8.85-3.82-7.76-11.43-12.25-18.19-17.35l-1.68-3.77c-4.17-.94-2.87-.85-6.5-1.03-.73-.04-1.46-.05-2.19-.07l-.97-3.45c8.11-8.67 1.54-11.16 7-18.28 4.21.63 8.09 1.06 12.35 1 3.27-4.47 2.31-5.11 2.13-10.4 5.08-9.12 11.92-15.02 19.7-21.72 3.06 4.71 2.7 7.37 2.52 12.67-.1 2.89-.19 1.65.65 4.65 4.5 4.78 10.65 11.1 17.62 11.29 15.37.41 35.78-25.32 46.05-35.27"/><path fill="#129CDB" d="m2460.68 2133.65 6.04 2.67c6.07 7.39 8.38 16.55 11.42 25.48-14.17 10.39-31.64 17.87-47.13 26.2a4556 4556 0 0 0-69.01 38.43c-11.49-7.75-15.35-16.65-20.93-28.84 35.17-27.39 79.4-45.3 119.61-63.94"/><defs><linearGradient id="d" x1="1863.642" x2="1911.709" y1="1106.237" y2="991.619" gradientUnits="userSpaceOnUse"><stop offset="0" stop-color="#060502" stop-opacity="0"/><stop offset="1" stop-color="#090804" stop-opacity=".031"/></linearGradient></defs><path fill="url(#d)" d="M1930.7 1013.67c4.79-4.25 9.62-8.47 14.48-12.63 3.32 3.77 6.83 6.8 7.25 12.06-2.98 2.58-5.25 3.66-8.86 5.01-3.99 1.5-7.07 3.25-9.07 7.33-1.46 2.98-1.31 2.55-.88 4.76-8.66 12.17-21.14 22.02-32.2 32 7.32 11.91 11.3 20.49 25.4 24.85-.39 6.71-1.37 10.29-6.5 15.11-3.02 2.83-7.57 5.47-11.77 4.46-1.02-.25-1.86-.97-2.79-1.46-4.68-9.45-9.57-17.46-15.89-25.9-15.94 12.1-31.83 25.79-49.09 35.9l-7.22-2.65-1.23-4.33c2.08-2.35 2.67-4.29 3.77-7.19-.71-8.4-5.59-14.78-9.9-21.79-.27-13.4 7.26-27.12 11.8-39.64l3.4-1.01c4.52 10.81 10.22 18.71 19.82 25.52 3.11.31 3.9.82 6.8-.59 17.33-10.9 32.73-24.41 47.58-38.41 2.81-2.49 2.54-6.25 3.16-9.88 3.22.99 5.78 1.32 9.15 1.37z"/><path fill="#050502" fill-opacity=".059" d="M2206.96 2038.74c-.36 6.14-1.34 9.29 1.65 14.78 4.7.77 8.27.54 12.91-.06 2.7-.34 1.47-.23 4.57-.26-44.55 29.61-90.08 57.91-130.86 92.75-40.31 31.68-83.5 64.76-109.23 110.18l-7.8-2.86c39.54-59.73 89.94-114.49 147.53-157.06 26.79-19.8 60.9-30.31 81.23-57.47"/><path fill="#613AA3" d="M2374.85 2121.08c16.39-22.94 71.64-44.27 98.64-49.35 5.98-1.13 12.73-1.55 17.59 2.84 6.64 5.98 7.37 17.68 8.74 26.01l-3.71 1.1c-18.52 5.67-93.3 46.47-106.35 40.78-8.09-3.53-11.51-13.88-14.91-21.38"/><path fill="#050502" fill-opacity=".184" d="m1980.26 963.415 13.59-16.587c4.52 4.816 9.22 3.475 11.54 9.355-17.98 14.056-31.5 35.971-47.36 52.627 5.21 6.7 9.71 13.65 17.26 17.85 9.1.02 15.31-7.13 21.53-13.28 8.02-7.93 24.45-23.741 24.58-35.067-2.75-4.888-5.54-9.514-8.72-14.13 1.11.534 2.24 1.04 3.34 1.6 8.97 4.57 10.48 13.374 13.36 22.237l2.42 1.872c15.93-2.408 20.93-10.641 33.13-18.884-5.37 9.753-11.74 18.416-18.36 27.336-4.92-2.918-7.58-5.849-13.64-4.103-21.16 6.089-47.4 50.969-62.61 68.059-11.41 10.91-22.79 21.65-32.92 33.79l-3.24 3.74c-13 9-45.67 27.84-49.75 42.97-.74 2.73.62 5.77 1.27 8.42-4.08-3.64-6.6-6.23-7.72-11.69-.57-2.8-.94-4.74-2.07-7.46-.3-.7-.65-1.38-.97-2.07 8.74-8.91 21.23-16.36 30.84-24.84.93.49 1.77 1.21 2.79 1.46 4.2 1.01 8.75-1.63 11.77-4.46 5.13-4.82 6.11-8.4 6.5-15.11 11.71-14.93 28.45-28.26 42.21-41.47-3.88-9.61-6.4-19.77-16.31-24.42-8.82.78-11.96 4.26-19.1 9.04-.43-2.21-.58-1.78.88-4.76 2-4.08 5.08-5.83 9.07-7.33 3.61-1.35 5.88-2.43 8.86-5.01-.42-5.26-3.93-8.29-7.25-12.06 12.23-12.131 23.74-24.66 35.08-37.625"/><path fill="#129CDB" d="M2190.2 2163.05c8.68 6.23 16.38 12.6 24.12 19.97-16.16 14.62-32.5 29.08-48.07 44.31-10.27 9.95-30.68 35.68-46.05 35.27-6.97-.19-13.12-6.51-17.62-11.29 5.36-24.97 32.92-45.32 51.23-61.69 11.13-9.67 23.09-20.08 36.39-26.57"/><path fill="#050502" fill-opacity=".008" d="m1832.33 1108.18 1.23 4.33 7.22 2.65c-4.79 2.99-8.5 3.98-9.81 10.04-1.28 5.95.16 10.24 2.91 15.31 6.19 3.84 11.55 3.94 18.54 2.34 7.35-1.69 16.12-8.74 22.5-12.85.32.69.67 1.37.97 2.07 1.13 2.72 1.5 4.66 2.07 7.46 1.12 5.46 3.64 8.05 7.72 11.69 4.67 5.4 8.19 10.73 11.77 16.89-2.57 5.8-4.81 9.76-9.21 14.36-5.02-.8-7.09-1.61-10.94-4.94-4.12-7.81-7.82-18.4-17.18-20.76-9.21-2.32-29.59 13.21-38.57 18.08-8.93 3.07-11.18 4.75-15.68 13.68l-3.52-1.68c-3.62-4.69-6.63-9.17-9.55-14.33 1.26-1.99.55-.62 1.35-4.43l-6.94-3.51-1.44-4.85c.54-7.46-1.38-11.65-4.54-18.32 5.43-5.85 11.26-4.32 17.4-10.81 9.11-9.03 22.71-15.68 33.7-22.42"/><path fill="#0785C7" d="M2023.87 2383.11c6.9 1.06 14 1.81 20.74 3.6l4.59 5.84 3.46-.27 5.93-9.64.33 10.35c1.34.03 2.69.04 4.03.09 8.3.32 13.19.89 19.7 6.1 2.08 1.66 4.15 3.29 6.21 4.99-5.06 11.3-8.05 23.05-20.51 27.86-15.01-.51-20.53-14.48-36.8-8.33-8.96 8.84-1.52 29.06-19.31 29.04-4.84-.01-10.2-1.26-14.94-2.27-4.18-3.09-6.13-6.16-9.05-10.35 1.86-15.99 6.57-26.56 18.18-37.93 6.21-6.08 11.79-12.49 17.44-19.08"/><path fill="#129CDB" d="M2023.87 2383.11c6.9 1.06 14 1.81 20.74 3.6l-.78 10.36c.01 5.03.58 10.23-1.57 14.9-1.86 1.07-5.84 4.13-7.73 4.46-13.19 2.32-30.97-5.39-36.64 15.22-1.43 5.21-.09 6.23 2.72 10.32 3.82 1.78 7.72 3.09 10.72 6.1-4.69 1.02-9.27 1.81-14.03 2.4-4.18-3.09-6.13-6.16-9.05-10.35 1.86-15.99 6.57-26.56 18.18-37.93 6.21-6.08 11.79-12.49 17.44-19.08"/><path fill="#1674B5" d="M2042.26 2411.97c-4.08-.98-9.56-2.11-12.89-4.79-4.13-3.33-4.44-6.24-5.18-11.04l2.78-3.26c6.39-1.59 11.2 1.57 16.86 4.19.01 5.03.58 10.23-1.57 14.9"/><path fill="#4763BE" d="M2440.58 1956.12c3.17-.16 6.13.17 9.28.46 2.05 2.36 3.92 4.64 5.34 7.44 2.84 5.61 4.35 11.05 1.59 17.13-9.94 21.96-56.87 31.53-78.24 38.12l-2.2.33c-5.37-2.07-6.74-2.51-9.78-7.75-3.62-6.25-4.93-14.96-1.7-21.58 10.22-20.94 54.88-28.42 75.71-34.15"/><path fill="#613AA3" d="M2434.61 2033.81c3.23-3.84 6.94-7.51 11.23-10.17 21.2-13.17 52.43-20 76.66-14.9 2.68 5.36 5.6 10.29 3.82 16.48-3.09 10.76-16.2 17.89-25.65 22.11-16.53 7.39-39.54 16.69-57.69 13.32-4.01-3.17-6.68-5.3-7.54-10.64-.83-5.2-.7-10.93-.83-16.2"/><path fill="#129CDB" d="M2017.99 2370.49c2.31-20.26 10.9-39.46 22.57-56.12 8.13-11.61 14.55-20.27 29.01-22.66 6.76 5.1 14.37 9.59 18.19 17.35-.17 3.36-.35 5.61-1.4 8.85-9.98 18.62-20.07 37.65-33.38 54.14-1.72 2.06-3.03 3.89-5.31 5.36-.44.18-.87.4-1.33.53-10.92 3.04-19.15-2.48-28.35-7.45"/><path fill="#1674B5" d="M2047.67 2377.41c-.37-3.51.14-1.69-1.93-5.33-3.82-1.31-8.91-2.53-12.3-4.64-4.75-2.95-4.21-5.33-4.77-10.36l2.43-2.64c2.67.1 4.28.05 7.01.71 8.89 2.16 11.23 9.57 14.87 16.9-1.72 2.06-3.03 3.89-5.31 5.36"/><path fill="#129CDB" d="M2173.31 2237.57c9.15 5.62 16.46 10.85 23.5 19.14-10.95 12.82-22.54 25.42-32.83 38.76-7.65 7.71-26.93 34.87-36.89 34.76-.99-.01-1.97-.29-2.96-.43-6.03-5.61-14.22-10.16-21.06-14.86 19.69-28.59 45.15-53.52 70.24-77.37"/><path fill="#613AA3" d="M1750.47 1126.95c5.6-2.07 9.51-3.62 15.42-1.18 2.27.94 4.63 2.72 6.63 4.07l1.14 2.09 7.57 9.48c3.16 6.67 5.08 10.86 4.54 18.32-21.44 12.58-44.01 23.07-66.36 33.91l-10.88-27.57c-1.78-3.6-2.01-5.94-2.07-9.93 8.41-14.06 29.66-21.79 44.01-29.19"/><path fill="#262075" d="M1750.47 1126.95c5.6-2.07 9.51-3.62 15.42-1.18 2.27.94 4.63 2.72 6.63 4.07l1.14 2.09c-20.08 7.98-49.57 19.18-65.13 34.14-1.78-3.6-2.01-5.94-2.07-9.93 8.41-14.06 29.66-21.79 44.01-29.19"/><path fill="#129CDB" d="M2175.27 2302.86c5.64 2.77 14.15 5.72 16.58 12 2.52 6.51.51 13.17-2.8 18.92-6.51 11.31-15.39 21.18-21.77 32.57l-11.85 14.62c-5.18 6.47-8.36 9.3-16.06 12.44-7.12-3.66-14.81-6.25-22.28-9.13 1.12-14.26 12.55-27.8 20.06-39.51 10.84-14.55 22.04-32.79 38.12-41.91"/><path fill="#4763BE" d="M2125.1 2369.12c3.72.4 7.49 1 11.04 2.23 7.42 2.59 10.12 9.23 13.34 15.73-4.82-.5-10.09-1.06-14.43-3.39-5.65-3.03-7.7-9.01-9.95-14.57"/><defs><linearGradient id="e" x1="2908.061" x2="2940.174" y1="2091.134" y2="2054.302" gradientUnits="userSpaceOnUse"><stop offset="0" stop-color="#191048" stop-opacity=".949"/><stop offset="1" stop-color="#191049"/></linearGradient></defs><path fill="url(#e)" d="M2850.85 2024.75c.87 5.18.2 11.75 5.27 14.41 7.12 3.72 23.22 3.8 31.7 5.65 28.46 6.2 95.39 26.63 111.64 51.68 2.77 4.27 3.06 7.53 2.76 12.47-2.04 3.68-3.61 6.6-6.31 9.85-2.87-4.7-4.66-6.45-9.54-9.01-5.76 1.29-5.77 2.49-9.4 7.28l-1.53 13.35c-3.37-5.87-4.45-13.16-7.13-19.4-14.43-33.53-70.92-58.33-105.33-59.92-21.42-.98-40.43 9.35-61.82 1.1-.54-.21-1.08-.44-1.62-.66 17.12 1.65 31.18 1.74 47.88-2.89.87-7.98 2.28-15.97 3.43-23.91"/><path fill="#613AA3" d="M1347.83 1144.34c18.34-.71 56.82-11.36 72.15-2.49 6.04 3.49 6.56 10.11 8.44 16.24-.5 6.42.34 11.47-3.75 16.58-18.41 6.89-56.33 9.4-74.94 3.52-1.65-11.27-1.73-22.48-1.9-33.85"/><path fill="#7D4AC2" d="M2570.67 2081.31c-13.8 3.76-35.62 12.31-49.59 10.88-4.06-.41-8.15-2.32-10.49-5.71-3.19-4.63-4.32-10.01-2.8-15.52 1.54-5.6 5.73-9.89 10.49-12.94 14.09-9.05 48.6-18.48 64.82-14.56 3.17 5.2 6.57 8.67 5.42 15.18-1.4 7.92-12.19 17.32-17.85 22.67"/><path fill="#262075" d="M2565.19 2046.74c2.96.6 7.07 1.08 9.73 2.45 5.19 2.68 5.45 4.35 6.83 9.52-1.54 6.28-4.79 9.26-9.15 13.7-3.46.71-5.87.77-9.36.67-3.64-3.53-4.83-4.55-5.3-9.93-.58-6.77 3.13-11.62 7.25-16.41"/><path fill="#613AA3" d="M1111.38 1220.8c13.04 3.49 27.83 8.69 40.15 14.22 7.8 3.5 16.5 8.88 18.92 17.68 2.6 9.47-4.64 22.36-8.9 30.5-22.14-7.21-43.52-17.47-64.82-26.83 5.96-11.35 10.11-23.59 14.65-35.57"/><path fill="#7D4AC2" d="M1329.5 1235.54c20.47 3.28 40.43 4.56 61.15 4.63-1.63 14.46-.4 29.16-2.27 43.8-20.59-.66-40.93-2.3-61.43-4.2.53-14.77 2.53-29.43 2.55-44.23"/><path fill="#0785C7" d="M1959.16 936.479c6.02 9.346 11.65 20.778 21.1 26.936-11.34 12.965-22.85 25.494-35.08 37.625-4.86 4.16-9.69 8.38-14.48 12.63-2.47-.03-5-.64-7.44-1.04-7.81-6.41-11.93-15.222-16.79-23.897a5297 5297 0 0 0 52.69-52.254"/><path fill="#7D4AC2" fill-opacity=".988" d="M2858.69 1916.96c62.91 14.87 118.08 59.56 151.94 114.19 4.08 6.59 7.25 13.59 10.19 20.74.7 3.94 1.69 6.49 3.67 9.96l2.06-1.13c3.1-9.45 3.52-18.86 4.27-28.7l2.24-14.51c3.78 14.02 2.47 27.26 2.58 41.59-1.17 13.91-11.53 29.7-18 41.79.52-21.24-.29-37.79-9.57-57.4-30.61-64.66-99.02-100.93-163.24-123.86z"/><path fill="#613AA3" d="M1598.29 1308.76c15.41-5.82 31.21-10.46 47.09-14.79 8.86 11.5 16.7 25.97 17.02 40.68-16.39 4.87-32.29 11.23-48.44 16.8-7.62-13.14-11.79-28.12-15.67-42.69"/><path fill="#129CDB" d="M2066.73 970.032c7.54 2.174 15.43 6.695 20.62 12.589l4.08 1.776c3.42 1.939 6.94 4.332 10.54 5.865.68 3.694 1.48 7.363 1.78 11.108l2.74 2.39a989 989 0 0 0-22.01 35.86c-.11-.12-.2-.27-.33-.37-5.18-4.19-7.89-3.19-14.32-3.21-2.93-4.92-4.54-9.35-6.12-14.79-1.6-2.01-4.13-3.32-6.25-4.77l3.66-.79c-6.07-5.23-10.06-10.75-14.55-17.346 6.62-8.92 12.99-17.583 18.36-27.336z"/><path fill="#129CDB" d="M2066.73 970.032c7.54 2.174 15.43 6.695 20.62 12.589-8.22 10.887-16.34 23.759-26.23 33.069-6.07-5.23-10.06-10.75-14.55-17.346 6.62-8.92 12.99-17.583 18.36-27.336z"/><path fill="#1674B5" d="m2103.75 1001.37 2.74 2.39a989 989 0 0 0-22.01 35.86c-.11-.12-.2-.27-.33-.37-5.18-4.19-7.89-3.19-14.32-3.21 18.11-6.2 20.1-20.07 32-32.67.63-.68 1.28-1.33 1.92-2"/><path fill="#13183F" d="m2087.35 982.621 4.08 1.776c-7.39 10.642-17.25 29.453-27.72 36.853-1.6-2.01-4.13-3.32-6.25-4.77l3.66-.79c9.89-9.31 18.01-22.182 26.23-33.069"/><path fill="#613AA3" d="M1473.97 1284.1c13.86-3.07 36.96-11.17 50.29-6.13 5.9 5.16 8.7 10.47 9.25 18.31.54 7.66-1.46 14.01-6.98 19.52-8.61 8.59-30.64 10.63-42.09 9.53-1.38-.14-3.22-.61-4.49-.89-.98-13.74-6.45-26.32-5.98-40.34"/><path fill="#0785C7" d="M1840.78 1115.16c17.26-10.11 33.15-23.8 49.09-35.9 6.32 8.44 11.21 16.45 15.89 25.9-9.61 8.48-22.1 15.93-30.84 24.84-6.38 4.11-15.15 11.16-22.5 12.85-6.99 1.6-12.35 1.5-18.54-2.34-2.75-5.07-4.19-9.36-2.91-15.31 1.31-6.06 5.02-7.05 9.81-10.04"/><path fill="#AF60DC" d="M2731.55 2128.66c5.44-.76 11.68-1.46 17.08-.07 5.43 1.4 7.21 3.71 10.14 8.2.51 6.45-1.24 10.96-5.38 15.8-12.09 14.13-25.62 15.16-42.9 16.32-6.89 1.07-13.94-.57-20.39-2.84-2.28-2.44-4.1-3.42-4.61-6.89-.83-5.61 1.3-9.67 4.79-13.87 11.2-13.5 25.06-14.64 41.27-16.65"/><path fill="#7D4AC2" d="M2735.52 2134.85c.35-.09.7-.24 1.06-.28 5.3-.62 8.29-.57 12.79 2.14.87 3.78.95 5.06-1.09 8.58-6.62 11.4-20.53 13.15-32.12 15.22-5.19-.32-10.69-.23-15.23-3.03-2.75-1.7-2.44-3.13-3.26-6.01.96-2.35.99-2.83 2.9-5.06 9.22-10.77 22.07-11.08 34.95-11.56"/><path fill="#129CDB" fill-opacity=".988" d="M2184.79 2228.28c13.61-13.32 34.47-35.89 52.02-42.28 6.02-2.19 8.14.34 13.14 3.19 4.79 4.36 9.69 8.62 14.68 12.76-16.87 16.57-36.11 30.42-54.23 45.56-10.54-3.64-17.89-11.61-25.61-19.23"/><path fill="#7D4AC2" fill-opacity=".988" d="M2757.39 1967.08c1.99.05 5.05.1 6.94.37 5.33.78 6.21 1.17 9.21 5.25-.08 8.17-.1 17.03-2.91 24.77-15.19 8.7-27.56-1.95-43.03.5-14.25 2.26-26.92 4.52-40.81-.98-2.28-2.47-4.2-3.36-4.34-6.94-.24-6.08 3.43-13.09 7.46-17.55 11.09-12.25 47.69-3.87 63.7-4.43-.55 1.18-.97 2.42-1.65 3.53-1.3 2.14-4.39 4.41-6.26 6.15-.94 5.75-.83 6.4 1.51 11.74 5.02 2.98 6.22 3.21 12.07 3.41 5.01-2.53 5.58-2.73 8.27-7.61-.08-6.46-1.12-9.51-5.74-14.13-1.42-1.42-2.93-2.74-4.42-4.08"/><path fill="#613AA3" d="M2707.75 1971.97c3.09.42 7.61.62 10.4 1.92 4.84 2.25 5.06 4.07 6.21 8.72-1.84 5.75-5.15 7.99-9.68 11.57-2.1-.07-5.74.08-7.85-.6-5.08-1.64-5.61-2.92-7.77-7.36.97-6.62 4.32-9.61 8.69-14.25"/><path fill="#0785C7" d="M1933.62 1030.2c7.14-4.78 10.28-8.26 19.1-9.04 9.91 4.65 12.43 14.81 16.31 24.42-13.76 13.21-30.5 26.54-42.21 41.47-14.1-4.36-18.08-12.94-25.4-24.85 11.06-9.98 23.54-19.83 32.2-32"/><path fill="#7D4AC2" d="M1407.07 1291.88c12.49-.69 38.86-6.56 48.73.7 2.89 12.75 4.44 25.23 5.64 38.24-12.51 1.51-36.76 8.93-47.81 2.27-4.46-2.7-7.42-7.53-8.36-12.58-1.57-8.44-2.86-21.38 1.8-28.63"/><path fill="#4763BE" d="M2485.58 1942.41c14.37-3.03 29.81-9.29 43.23-.99 2.74 4.54 3.83 6.89 2.67 12.28-2.47 11.46-7.73 16.72-17.6 22.21-.69.38-1.38.75-2.06 1.12-10.64.79-22.9 9.14-33.78 5.53-5.03-1.66-9.05-7.09-10.89-11.89-2.08-5.42-1.48-13.73 1.7-18.8 4.05-6.45 9.97-7.07 16.73-9.46"/><path fill="#262075" d="M2511.1 1942.64c2.59 1.31 4.89 3.3 7.22 5.03 1.76 3.97 3.46 6.17 1.31 10.52-2.49 5.02-7.72 8.27-12.53 10.71-11.58 5.86-20.51 6.35-32.7 2.22-.42-8 .44-15.51 5.88-21.77 8.72-1.31 17.82 4.74 26.65 7.02 4.49-3.77 3.53-8.09 4.17-13.73"/><path fill="#613AA3" d="M1269.36 1176.54c18.03 3.73 36.13 7.13 54.29 10.2-3.39 13.78-3.95 28.33-6.61 42.33-18.5-4.32-36.94-8.57-55.13-14.12 2.34-12.83 4.82-25.64 7.45-38.41"/><path fill="#129CDB" d="M2058.59 2382.64c7.82-11.2 12.44-24.95 21.1-35.62 7.09-8.74 12.97-11.11 23.96-12.36 5.05 3.66 10.57 6.89 11.79 13.51 1.63 8.8-5.93 20.01-10.18 27.51l-16.4 28.49c-2.06-1.7-4.13-3.33-6.21-4.99-6.51-5.21-11.4-5.78-19.7-6.1-1.34-.05-2.69-.06-4.03-.09z"/><path fill="#613AA3" d="M1193.96 1256.52c18.13 3.57 35.7 10.34 54.05 13.98-1.83 12.29-2.66 25.34-8.11 36.62-20.11 2.05-37.53-6.65-55.82-13.8z"/><path fill="#613AA3" d="m1161.22 1188.88 52.28 20.87c-1.36 13.25-4 26.07-6.74 39.09-17.94-3.98-35.33-11.52-52.03-19.02.8-14.07 3.45-27.21 6.49-40.94"/><path fill="#4763BE" d="M2339.25 1993.93c5.49.09 5.64.08 9.89 3.54 2.94 9.01 6.03 18.02 1.72 27.15-6.93 14.69-30.99 20.22-45.26 25.51-3.86-.9-6.13-2.01-8.23-5.58-3.76-6.39-4.77-15.53-2.44-22.46 5.21-15.52 30.91-22.66 44.32-28.16"/><path fill="#0785C7" d="M1847.34 1038.73c17.67-14.01 35.11-28.31 52.3-42.901 7.47 9.251 13.68 17.361 15.96 29.241-14.85 14-30.25 27.51-47.58 38.41-.84-.22-1.71-.37-2.53-.66-9.17-3.35-13.91-15.96-18.15-24.09"/><path fill="#7D4AC2" d="M2536.03 2106.87c16.39-11.26 32.66-13.8 51.89-15.45 3.9 11.34-6.75 13.86 4.11 28.25 1.35 1.79 2.62 3.65 3.93 5.47-3.83 2.6-7.77 5.16-12.01 7.06-12.56 5.6-33.17 9.02-46 2.48-4.47-2.28-6.69-6.17-7.5-10.98-1.01-6.03 2.63-11.98 5.58-16.83"/><path fill="#050502" fill-opacity=".063" d="m2190.2 2163.05-2.3-2.98c2.83-5.7 8.93-8.19 14.23-11.27l4.87 8.44c5.28 5.69 12.8 16.04 21.33 15.55 6.47-.36 13.98-7.02 18.84-10.9-.67 10.36-.83 17.36 2.78 27.3-5-2.85-7.12-5.38-13.14-3.19-17.55 6.39-38.41 28.96-52.02 42.28 7.72 7.62 15.07 15.59 25.61 19.23-3.42 1-6.86 1.93-10.32 2.77-.92 2.47-1.17 4.77-3.27 6.43-7.04-8.29-14.35-13.52-23.5-19.14 3.57-.28 6.74-.66 10.21-1.61l1.6-3.71c-.84-1.17-1.6-2.4-2.84-3.23-5.74-3.84-9.71-2.43-16.03-1.69 15.57-15.23 31.91-29.69 48.07-44.31-7.74-7.37-15.44-13.74-24.12-19.97"/><path fill="#129CDB" d="M1958.03 1008.81c15.86-16.656 29.38-38.571 47.36-52.627 2.16 2.563 4.5 6.205 7.29 8 3.18 4.616 5.97 9.242 8.72 14.13-.13 11.326-16.56 27.137-24.58 35.067-6.22 6.15-12.43 13.3-21.53 13.28-7.55-4.2-12.05-11.15-17.26-17.85"/><path fill="#613AA3" d="M1305.63 1285.9c.66.18 1.31.36 1.96.53 14.22 3.67 40.2-.66 50.19 10.63.54 4.2.87 8.07.71 12.31-.09 5.36-.38 10.82-.18 16.17-2.29 3.33-2.43 5.41-6.59 6.27-11.81 2.45-28.92-2.2-40.81-4.13-4.59-1.21-4.84-1.23-7.78-4.94-1.48-12.22.97-24.68 2.5-36.84"/><path fill="#613AA3" d="M1447.53 1344.89c3.68-.41 10.26-1.11 13.11 1.43 7.82 6.98 5.69 26.17 5.89 35.89-13.81 1.94-28.1 2.02-42.03 2.66-.63.07-1.26.17-1.89.2-3.64.15-7.97-.47-10.43-3.34-6.81-7.92-4.2-24.47-4.01-34.34 12.92-1.68 26.35-1.78 39.36-2.5"/><path fill="#AF60DC" d="M2799.54 2051.55c-.36-.24-.66-.62-1.09-.71-2.41-.52-4.94-.27-7.36-.74-4.6-.9-9.46-5.31-11.18-9.73-1.24-3.17-1.91-5.66-.34-8.75 3.25-6.41 10.46-9.15 16.98-11.1 18.2-5.45 37.52-5.09 54.3 4.23-1.15 7.94-2.56 15.93-3.43 23.91-16.7 4.63-30.76 4.54-47.88 2.89"/><path fill="#613AA3" d="M1543.47 1332.33c.5-3.38-.2-5.7 2.86-7.75 9.95-6.66 26.21-8.2 37.86-10.37 6.06 14.24 10.21 28.14 14.8 42.85-10.97 3.14-33.29 12.55-43.58 5.92-8.69-5.6-9.96-21.31-11.94-30.65"/><path fill="#4763BE" d="M1732.01 1037.89c1.92.28 4.16 1.24 6.02 1.85 6.99 6.46 10.2 15.03 14.19 23.51-17.02 8.71-33.72 18.15-50.51 27.29l-5.41-1.28c-7.11-6.94-10.07-19.04-14.95-27.87a360 360 0 0 1 50.66-23.5"/><path fill="#129CDB" d="M2385.83 2237.53c10.26 3.43 15.69 11.05 22.41 18.96-16.8 13.93-35.84 25.84-53.05 39.45-5.3-.09-8.44-1.59-12.21-5.11-4.78-4.47-5.62-8.04-5.91-14.4 7.86-17.49 33.1-28.76 48.76-38.9"/><path fill="#613AA3" d="M1338.1 1362.6c.6-5.66.89-10.95 3.34-16.18 10.15-8.07 35-1.92 48.34-1.86 3.31 12.69 2.42 26.24.77 39.13-12.94.08-40 3.77-50.08-5.98-3.39-3.28-2.48-10.67-2.37-15.11"/><path fill="#1674B5" d="M1821.55 1174.85c8.98-4.87 29.36-20.4 38.57-18.08 9.36 2.36 13.06 12.95 17.18 20.76-7.03 13.36-36.25 22.02-49.18 30.44-5.23-.25-8.6-1.54-12.16-5.7-3.61-4.2-5.02-9.4-4.54-14.87.6-6.78 5.25-8.66 10.13-12.55"/><path fill="#613AA3" d="M1485.57 1338.62c14.7-.19 28.06-7.52 43.11-6.43 2.81 13.16 5.08 25.78 5.88 39.23-11.78 3-34.34 11.97-44.71 4.03-6.77-5.18-9.3-19.48-8.45-27.45.44-4.23 1.78-6.02 4.17-9.38"/><path fill="#129CDB" fill-opacity=".988" d="M1971 921.967c7.2-7.819 12.23-16.629 19.02-24.516 3.32-3.858 6.5-3.959 11.26-4.283 4.8 3.022 7.88 6.544 11.51 10.794l1.46 12.195c-6.46 10.547-12.92 20.797-20.4 30.671l-13.59 16.587c-9.45-6.158-15.08-17.59-21.1-26.936 4.1-4.7 7.93-9.643 11.84-14.512"/><path fill="#613AA3" d="M1226.31 1315.38c15.07 3.15 30.58 6.47 44.79 12.48-.79 12.67-.63 25.69-7.04 36.96-16.88-.23-29.99-3.84-45.58-9.63 2.01-13.4 4.97-26.58 7.83-39.81"/><path fill="#7D4AC2" d="M2554.53 1927.47c10.27-1.92 25.42-6.88 34.95-1.07 3.67 2.25 5.68 5.36 8.06 8.8-.75 3.31-1.35 5.43-.91 8.83-7.65 12.93-17.63 16.31-31.64 20.14-6.06 1.13-10.76 1.9-16.96.84-4.45-3.07-8.63-6.58-10.23-12.02-1.57-5.3-1.1-12.57 1.93-17.37 3.78-6 8.48-6.2 14.8-8.15"/><path fill="#262075" d="M2577.95 1930.81c3.86.24 3.93.81 6.94 2.93 1.44 5.69 1.9 6.91.26 12.46-8.19 9.46-19.74 11.07-31.4 13.35-4.78-1.64-6.59-3.36-9.87-7.16-.18-4.29.02-5.86 2.66-9.44 6.85-9.27 21.02-11.01 31.41-12.14"/><path fill="#129CDB" d="M2255.62 2293.13c10.4 4.5 18.37 12.21 26.63 19.72-14.03 13.04-26.42 27.26-38.7 41.94-11.02-3.37-19.04-12.23-27.35-19.83z"/><path fill="#262075" d="m2597.54 1935.2 2.26-1.04c.58-.97 1.12-1.95 1.73-2.9 5.17-8.16 18.8-15.81 28.12-17.59 6.32-1.2 15.01.09 19.88 4.49 4.04 3.65 5.35 8.19 5.27 13.49-.09 6.33-4.26 12.73-9.02 16.6-7.26 5.92-16.31 7.7-25.48 6.68-10.04-1.11-15.86-4.9-23.67-10.9-.44-3.4.16-5.52.91-8.83"/><path fill="#613AA3" fill-opacity=".988" d="M1413.8 1189.16c14.23-3.73 28.36-5.85 42.95-7.51 6.5 9.77 9.99 19.61 10.85 31.34-1.02 1.94-1.87 3.99-3.32 5.65-14.3 2.71-28.2 7-42.4 10.17-1.08-4.06-2.34-8.03-3.59-12.04z"/><path fill="#129CDB" d="M1964.61 2504.84c-6.06-2.79-11.49-6.6-14.17-12.99-2.56-6.13-.68-9.95 2.22-15.36 13.92-25.97-3.45-22.19-1.23-43.11.6-5.65 1.45-6.32 5.61-9.56 5.94-.99 10.59.2 16.24 1.94 7.75 2.38 9.48 5.98 12.95 12.76l-1.97 3.18c-4.82 7.74-8.58 14.07-16.84 18.6 2.03 13.46 20.5 16.35 8.72 32.49-3.33 4.58-7.26 8.38-11.53 12.05"/><path fill="#129CDB" d="M2065.26 2478.16c2.72-10.11 3.77-20.33 11.41-27.73 5.15-.87 6.7-1.13 11.53 1.58 7.33 4.13 11.56 15.42 12.55 23.26 1.07 8.43.14 19.53-5.64 26.27-4.22 4.91-12.08 8.09-18.59 7.42-5.45-.57-11.24-2.4-16.49-4.03-.44-9.05 2.89-18.1 5.23-26.77"/><path fill="#1674B5" d="M2074.42 2461.73c4.07.1 8.78-.08 12.74.79 5.93 1.3 9.13 7.12 12.37 11.79-4.39.13-10.46.62-14.72-.55-5.66-1.56-7.87-7.25-10.39-12.03"/><path fill="#7D4AC2" d="M2689.51 1912.56c6.27-.22 15-.72 20.8 1.73 4.64 1.97 8.29 6.53 9.68 11.29 1.55 5.32.24 9.24-2.76 13.68-5.13 7.61-13.26 8.94-21.71 9.94-6.42-.8-15.31-1-21.16-3.86-6.97-3.41-9.55-7.55-11.82-14.74.79-3.9.65-5.64 3.27-8.82 6.14-7.45 14.62-8.63 23.7-9.22"/><path fill="#129CDB" d="M2000.69 702.935c16.12 10.07 24.71 41.103 31.47 58.377-3.44 7.629-7.9 14.93-11.96 22.253-16.14-16.33-24.22-40.092-32.66-61.014 3.86-6.99 8.42-13.208 13.15-19.616"/><path fill="#613AA3" d="M1475.19 1174.03c8.59-2.15 24.66-8.54 32.79-3.49 6.99 4.33 9.52 15.89 11.87 23.13-.38 5.68.25 8.45-4.83 12.1-7.16 5.15-20.79 6.23-29.43 7.83-1.1-.22-2.24-.27-3.29-.66-5.53-2.04-8.67-9.8-10.05-15.11-2.51-9.68-1.95-15.46 2.94-23.8"/><path fill="#613AA3" d="M1712.83 1287.75c-2.07-6.26-3.93-9.51-2.65-16.07 6.6-8.56 12.08-12.85 23.21-13.84 7.38-.66 7.51.42 13.01 5.14 3.05 11.05 10.69 20.52 14.56 31.48-8.67 4.26-24.39 14.91-34.17 11.07-7.76-3.05-9.49-11.81-13.96-17.78"/><path fill="#129CDB" d="M2134.93 2606.56c-.88-.44-1.79-.81-2.63-1.32-6.3-3.82-9.46-10.57-11.09-17.55a38.23 38.23 0 0 1 5.43-29.98c3.83-5.84 7.81-8.71 14.67-10.24 5.28 1.72 6.86 2.04 10.01 6.98 7.7 12.08 6.55 35.15 2.29 48.07z"/><path fill="#0785C7" fill-opacity=".984" d="M1919.46 913.49c9.88 4.781 14.48 12.668 19.59 21.985l-40.61 38.839c-8.78-4.866-14.23-14.569-20.02-22.568z"/><path fill="#129CDB" fill-opacity=".984" d="M2057.65 2537.45c10.04.28 18.95 2.05 28.65 4.34 1.53 16.99 4.27 34.53-2.01 50.85-3.44.22-6.92.46-10.36.32-6.61-.28-13.17-3.08-16.99-8.7-8.53-12.53-2.08-33.21.71-46.81"/><path fill="#613AA3" d="M1773.81 1238.42c7.13 1.19 10.22 2.92 14.48 8.87 5.73 8.01 9.86 17.56 14.15 26.4-11.12 6.4-22.21 12.47-33.81 17.98-4.93-10.86-9.47-24.41-16.49-33.93l.14-5.78c2.35-3.17 4.3-4.43 7.77-6.08 4.76-2.27 9.23-4.78 13.76-7.46"/><path fill="#0785C7" d="M1791.97 1100.85c11.17-4.14 23.55-15.29 34.23-21.65 4.31 7.01 9.19 13.39 9.9 21.79-1.1 2.9-1.69 4.84-3.77 7.19-10.99 6.74-24.59 13.39-33.7 22.42-3.05.83-5.42 1.11-8.54 1.33-7.39-3.88-10.55-11.49-14.6-18.49 5.74-3.91 11.08-8.22 16.48-12.59"/><path fill="#613AA3" d="M1710.41 1207.42c10.66 10.65 16.44 24.52 21.86 38.32-10.9 5.17-22.21 9.44-33.43 13.88-6.78-12.25-12.75-24.66-18.49-37.43 10.05-4.85 20.07-9.77 30.06-14.77"/><path fill="#129CDB" d="M1991.41 827.201c1.27.361 2.61.527 3.81 1.083 5.96 2.774 10.71 14.053 13.76 19.634-9.41 13.087-18.23 27.067-28.33 39.587-9.55-5.936-15.75-13.965-22.56-22.673z"/><path fill="#7D4AC2" d="M2538.19 2004.02c5.68-7.99 14.21-14.53 24.27-15.76 5.84-.71 9.96.57 15.16 3.27 2.26 3.29 4.04 6.31 5.62 9.98-.54 5.92-.83 10.97-4.83 15.75-5.55 6.65-17.24 14.41-26.22 14.29-5.67-.08-8.85-2.01-12.87-5.68-3.16-6.94-1.74-14.47-1.13-21.85"/><path fill="#613AA3" d="M1743.23 1193.4c6.72-.74 8.59-1.96 14.26 2.69 8.07 6.63 13.15 22.27 17.42 31.7-9.81 4.51-24.08 13.13-34.75 12.2l-18.86-35.71c7.88-3.08 14.88-6.17 21.93-10.88"/><path fill="#613AA3" d="M1763.5 1184.06c9.51-4.85 18.59-9.99 29.3-11.54 2.92 5.16 5.93 9.64 9.55 14.33 2.81 5.88 7.59 13.07 5.55 19.69-1.62 5.23-4.93 9.63-9.99 11.88-4.93 2.2-12.56 3.94-17.62 1.71-3.73-12.92-13.03-23-16.79-36.07"/><path fill="#262075" d="M2624.07 2029.52c4.35-.32 8.99-.84 13.33-.2 5.77.84 10.88 3.91 13.76 9.07 2.49 4.46 2.51 9.14.44 13.77-3.45 7.68-10.09 10.69-17.31 13.85-3.7.71-7.78 1.63-11.57 1.53-5.35-.15-9.31-1.5-12.49-6.08-3.04-4.35-3.15-9.27-1.74-14.2 2.61-9.07 7.77-12.99 15.58-17.74"/><path fill="#262075" d="M2678.82 2024.11c2.51-.16 4.99-.19 7.5-.06 7.52.39 18.09 2.6 22.44 9.53 1.79 2.85 2.53 5.82 1.75 9.06-1.98 8.23-8.9 11.93-15.54 16.22-1.59.25-3.19.51-4.8.67-8.18.83-16.85.8-23.11-5.44-3.31-3.31-4.64-7.48-3.73-12.09 1.73-8.73 8.73-13.2 15.49-17.89"/><path fill="#7D4AC2" d="M2586.33 2003.39c4.02-9.14 8.71-20.31 19.38-23.36 5.05-1.44 10.11-1.58 14.84 1.03 4.41 2.42 7.57 6.62 8.66 11.54 1.46 6.75-.94 14.62-5.59 19.67-4.61 5.01-13.11 6.71-19.49 8.5-3.53-1.23-8.33-2.41-11.44-4.43-4.99-3.24-5.04-7.67-6.36-12.95"/><path fill="#262075" fill-opacity=".976" d="M2795.6 1968.1c10.36-.83 26.2-3.09 34.75 4.42 2.51 2.2 4.09 4.06 4.46 7.41.86 7.9-3.69 13.71-8.58 19.36-9.99 1.03-26.57 3.85-34.78-3.57-2.51-2.27-4.1-4.27-4.39-7.66-.7-8.19 3.64-13.92 8.54-19.96"/><path fill="#613AA3" d="M1810.83 1222.13c7.37 1.36 9.4 2.2 13.86 8.33 5.24 7.22 9.02 16.21 12.86 24.24l-17.24 12.3c-1.59.24-4.84.77-6.37.74-4.77-.12-6.99-3.41-10.01-6.63-6.42-6.82-12.19-16.62-11.07-26.39.38-3.22 6.3-6.37 8.87-8.34 3.04-.73 6.27-2.85 9.1-4.25"/><path fill="#129CDB" d="M2301.88 2191.83c6.61-.59 11.12.41 16.59 4.17 1.14 3.6 1.85 5.35.67 9.16-4.24 13.61-18.51 21.25-30.17 27.44-3.94-.93-7.34-2.32-10.67-4.66-4.77-3.35-5.83-4.99-7.1-10.62 4.8-13.08 19.29-19.04 30.68-25.49"/><path fill="#4763BE" d="M1857.66 1203.35a924 924 0 0 1 17.6 30.51c-5.78 3.42-11.48 6.97-17.56 9.82-4.66 1.78-7.7 3.35-11.47 6.63-8.82-8.28-13.67-19.5-19.08-30.14 9.99-6.95 19.26-12.23 30.51-16.82"/><path fill="#0785C7" d="M1830.16 985.73c6 5.946 9.74 13.515 13.93 20.77-11.57 11.13-25.05 20.26-38.01 29.7-6.26-5.74-9.67-13.78-13.61-21.19 12.62-9.69 25.19-19.447 37.69-29.28"/><path fill="#129CDB" fill-opacity=".961" d="m2248.95 2114.68 5.54 2.81c.55.94 1.08 1.89 1.65 2.82 2.07 3.42 4.23 4.4 7.35 6.75 3.03 2.28 4.62 6.17 6.24 9.5-.89 9.62-10.26 15.16-17.39 21.07l-5.17 4.26c-4.86 3.88-12.37 10.54-18.84 10.9-8.53.49-16.05-9.86-21.33-15.55l8.09-2.48c3.96 5.23 4.92 7.68 11.19 9.99 6.67-4.05 8.09-11.87 13.68-17.62 4.06-.26 2.65-.38 6.32.11.8.11 1.6.25 2.39.37 4.51-2.55 7.74-5.31 9.27-10.54 1.46-4.98.63-6.88-1.92-10.81-5.38-1.16-5.72-1.26-10.73.96-2.49 3.69-5.16 8.59-8.32 11.67-4.3 4.2-7.18 2.88-12.66 2.37.22-4.5.53-8.06 2.06-12.31 7.95-4.23 15.18-9.17 22.58-14.27"/><path fill="#7D4AC2" d="M2639.63 2082.26c2.45.1 6.44-.02 8.88.8 5.19 1.73 7.29 4.67 9.86 9.21.83 5.73.61 10.25-2.62 15.19-3.89 5.93-9.92 7.11-16.31 9-4.38-.03-9.08.09-13.28-1.32-4.86-1.62-8.19-4.87-9.99-9.61-1.59-4.18-.42-8.93 1.93-12.62 5.09-7.99 12.96-8.92 21.53-10.65"/><path fill="#129CDB" fill-opacity=".988" d="M2281.02 2142.42c9.36-2.75 15.65-10.18 26.16-8.54 4.49 5.81 9.11 11.47 12.74 17.86-9.1 7.84-20.87 20.36-34.02 19.31-5.57-.44-6.83-1.81-10.68-5.4-1.68-5.22-2.11-10.78.3-15.91 1.26-2.68 3.6-5.12 5.5-7.32"/><path fill="#7D4AC2" d="m2782.96 2069.2 2.46-.2c3.62 3.05 4.66 5.35 5.33 10.11 1.01 7.16-.99 14.58-6.16 19.79-5.6 5.65-14.09 4.4-21.35 4.24-5.94-4.31-11.83-9.6-12.64-17.44-.49-4.82 1.93-8.12 5.34-11.13 8.25-7.27 16.83-5.73 27.02-5.37"/><path fill="#08080D" fill-opacity=".439" d="m1773.81 1238.42 1.13-2.03c10.22-1.58 16.59-8.81 26.79-10.01-2.57 1.97-8.49 5.12-8.87 8.34-1.12 9.77 4.65 19.57 11.07 26.39 3.02 3.22 5.24 6.51 10.01 6.63 1.53.03 4.78-.5 6.37-.74-4.86 4.63-7.3 3.09-12.33 5.56-5.78 2.84-10.99 7.65-16.81 10.76-20.99 11.24-45.13 23.58-67.92 30.51-4.54-7.54-9.42-14.73-11.89-23.24l1.47-2.84c4.47 5.97 6.2 14.73 13.96 17.78 9.78 3.84 25.5-6.81 34.17-11.07-3.87-10.96-11.51-20.43-14.56-31.48 2.17-1.33 3.93-3.45 5.74-5.24 7.02 9.52 11.56 23.07 16.49 33.93 11.6-5.51 22.69-11.58 33.81-17.98-4.29-8.84-8.42-18.39-14.15-26.4-4.26-5.95-7.35-7.68-14.48-8.87"/><path fill="#7D4AC2" fill-opacity=".988" d="M2679.29 2076.3c9.86-1.45 21.63-1.89 30.12 4.54 4.46 3.38 4.95 4.9 6.21 9.99-1.68 6.55-4.08 8.82-8.96 13.04-10.19 2.3-22.81 5.06-31.74-2.72-3.55-3.09-5.44-6.17-4.98-10.98.58-6.11 5.16-10 9.35-13.87"/><path fill="#129CDB" d="M2149.68 2416.33c6.46-11.25 11.68-25.24 24.87-28.94 6.32 6.4 13.15 11.81 12.82 21.61-.33 9.68-9.01 18.41-15.06 25.2-7.7-3.77-15.93-6.86-21.69-13.38z"/><path fill="#13183F" fill-opacity=".482" d="M1841.4 1038.55c17.86-14.1 37.18-27.67 54.12-42.773 21.88-19.497 51.08-61.179 75.48-73.81-3.91 4.869-7.74 9.812-11.84 14.512a5297 5297 0 0 1-52.69 52.254c4.86 8.675 8.98 17.487 16.79 23.897 2.44.4 4.97 1.01 7.44 1.04l-2.79 2.89c-3.37-.05-5.93-.38-9.15-1.37-.62 3.63-.35 7.39-3.16 9.88-2.28-11.88-8.49-19.99-15.96-29.241a2024 2024 0 0 1-52.3 42.901c4.24 8.13 8.98 20.74 18.15 24.09.82.29 1.69.44 2.53.66-2.9 1.41-3.69.9-6.8.59-9.6-6.81-15.3-14.71-19.82-25.52"/><path fill="#129CDB" d="M2045.95 2502.3c-1.8.61-3.05 1.1-4.84 1.51-6.23 1.45-11.94.81-17.33-2.66-3.79-4.97-4.53-9.95-3.76-16.03 1.12-8.89 4.29-15.52 11.15-21.23 7.51-1.7 13 1.41 19.9 4.24.44 12.82.05 22.14-5.12 34.17"/><path fill="#613AA3" fill-opacity=".933" d="M1034.8 1221.97c11.24-20.3 34.87-38.86 57.41-45.55 4.94-1.47 8.28-1.58 13.3-.07 3.06 3.23 3.81 3.82 4.75 8.1-17.64 19.4-66.27 3.32-70.09 55.65l-2.3-1.43c-.26-6.16-.41-10.97-3.07-16.7"/><path fill="#050502" fill-opacity=".125" d="M1977.94 676.141c18.21-2.636 32.28-1.414 49.62 5.31l27.29 26.706c11.29 10.699 18.81 20.335 25.64 34.505l-2.65 2.726-13.42-6.646c-2.88-4.501-5.82-8.958-9.16-13.135-4.83-6.039-11.78-15.113-19.76-15.944-1 5.598.92 8.488 2.81 13.702l-1.68 2.617c-.34-.283-.74-.518-1.04-.848-3.35-3.675-4.08-6.298-4.48-11.128 1.63-3.93 3.51-8.147 4.06-12.389.6-4.705-.98-9.213-4.56-12.397-12.71-11.314-36.56-12.569-52.67-13.079"/><path fill="#050502" fill-opacity=".18" d="M2052.98 2372.05c13.31-16.49 23.4-35.52 33.38-54.14.11 5.47-.99 9.22 2.6 13.57 5.91-.77 7.59-1.39 13.18 1.07l1.51 2.11c-10.99 1.25-16.87 3.62-23.96 12.36-8.66 10.67-13.28 24.42-21.1 35.62l-5.93 9.64-3.46.27-4.59-5.84c-6.74-1.79-13.84-2.54-20.74-3.6-3.37-4.49-4.79-6.93-5.88-12.62 9.2 4.97 17.43 10.49 28.35 7.45.46-.13.89-.35 1.33-.53 2.28-1.47 3.59-3.3 5.31-5.36"/><path fill="#050502" fill-opacity=".204" d="M1323.02 1285.06c-.1-16.03-1.05-31.84 2.67-47.55l3.81-1.97c-.02 14.8-2.02 29.46-2.55 44.23 20.5 1.9 40.84 3.54 61.43 4.2 1.87-14.64.64-29.34 2.27-43.8 4.14 7.22 4.48 33.39 1.29 41.41-.97 2.43-1.95 5-4.64 5.82-8.44 2.54-17.02-1.65-27.09 1.71-.99 4.07-1.58 4.32-.22 8.34 1.36 4.05.98 6.12.23 10.18l-1.73 1.74c.16-4.24-.17-8.11-.71-12.31-9.99-11.29-35.97-6.96-50.19-10.63-.65-.17-1.3-.35-1.96-.53 5.6-.93 11.7-.68 17.39-.84"/><path fill="#0785C7" d="M1944.38 2328.83c5.08.77 10.09 1.58 15.22 1.98-1.42 5.27-.37 9.86.25 15.11.9 7.71 1.17 14.92-4.87 20.9-3.45 3.42-8.95 5.6-13.84 4.84-5.53-.87-6.88-3.43-9.91-7.55-2.27-15.27 7.43-19.93 12.2-32.58.33-.9.63-1.8.95-2.7"/><path fill="#4763BE" d="M1927.71 2415.76c-5.88-5.26-9.59-11.68-10-19.81-.23-4.45 1.87-8.47 5.25-11.28 5.32-4.41 13.39-5.51 19.91-3.54 4.76 1.43 6.89 3.87 9.21 8.03.93 6.16-.31 9.19-4.1 14.14-4.7 6.14-9.09 10.17-15.89 13.79z"/><path fill="#050502" fill-opacity=".09" d="M1428.42 1158.09c2.25 3.79 2.38 19.45 4.52 20.05 8.61 2.44 17.64-4.88 25.15 2.25l-1.34 1.26c-14.59 1.66-28.72 3.78-42.95 7.51l4.49 27.61c-8.43-9.46-8.96-16.5-8.64-28.88l.09-2.75c-17.21-3.95-40.04 6.24-55.98-1-3.32-1.51-2.85-2.74-4.03-5.95 18.61 5.88 56.53 3.37 74.94-3.52 4.09-5.11 3.25-10.16 3.75-16.58"/><path fill="#08080D" fill-opacity=".478" d="M1877.3 1177.53c3.85 3.33 5.92 4.14 10.94 4.94l.29 1.21c-9.97 4.14-17.7 9.48-26.25 15.88l-4.62 3.79c-11.25 4.59-20.52 9.87-30.51 16.82 5.41 10.64 10.26 21.86 19.08 30.14l-7.12.99-1.56 3.4c-3.84-8.03-7.62-17.02-12.86-24.24-4.46-6.13-6.49-6.97-13.86-8.33l1.24-1.3c8.29-1.68 14.13-5.55 19.98-11.48l-3.93-1.38c12.93-8.42 42.15-17.08 49.18-30.44"/><path fill="#129CDB" d="M1959.31 743.493c7.35 7.263 9.73 16.413 12.93 25.914l-17.04 23.094c-5.88-8.408-10.76-17.732-15.93-26.601 6.19-8.118 12.85-15.21 20.04-22.407"/><path fill="#0785C7" d="M1915.23 2446.5c-1.5-6.62-3.27-17.37.73-23.46 3.29-5.02 6.4-5.63 11.75-7.28l4.38 1.33c4.76 3.48 7.42 4.73 8.84 10.84 1.32 5.7-1.28 12.88-5.09 17.17-1.86 2.1-4 3.85-6.22 5.54-3.92 1.65-8.11 3.12-11.88 5.08-.33-3.44-1.22-6.02-2.51-9.22"/><path fill="#129CDB" fill-opacity=".784" d="M2115.62 2167.02c7.02-.02 11.88-.13 18.17 3.2 4.04 5.06 4.85 7.8 7.19 13.67.56 1.42 1.94 3.33 3.07 4.42-4.06 4.58-7.76 8.73-12.8 12.3-8.43-3.97-18.56-10.26-20.98-19.98-1.44-5.78 2.36-9.13 5.35-13.61"/><path fill="#050502" fill-opacity=".235" d="m1636.9 2495.28 4.59.92c5.27 29.65 15.44 57.3 29.06 84.11-10.55-6.19-9.81-16.82-18.7-23.67-3.64.09-8.16.54-11.71-.21-5.35-1.13-7.72-4.69-10.71-8.79 4.66 2.21 8.65 4.88 13.95 3.63 2.77-8.06-3.48-21.23-6.13-29.56-5.3-3.36-10.34-6.98-15.41-10.67 3.48.19 1.92-.03 5.58.74l9.81 1.99 1.99-2.62z"/><path fill="#050502" fill-opacity=".224" d="M2485.58 1942.41c3.37-2.5 6.75-4.05 10.61-5.63 13.94-5.69 20.56-5.56 34.43.35l2.23.97c.94-3.24 1.98-6.18 3.22-9.3 5.03-3.15 12.71-1.6 18.46-1.33-6.32 1.95-11.02 2.15-14.8 8.15-3.03 4.8-3.5 12.07-1.93 17.37 1.6 5.44 5.78 8.95 10.23 12.02 6.2 1.06 10.9.29 16.96-.84-4.42 3.52-8.2 6.09-14.18 5.37-4.29-.52-8.61-1.77-12.78-2.88-9.99 5.41-13.8 10.93-26.21 10.37.68-.37 1.37-.74 2.06-1.12 9.87-5.49 15.13-10.75 17.6-22.21 1.16-5.39.07-7.74-2.67-12.28-13.42-8.3-28.86-2.04-43.23.99"/><path fill="#050502" fill-opacity=".341" d="M2224.31 2141.26c5.48.51 8.36 1.83 12.66-2.37 3.16-3.08 5.83-7.98 8.32-11.67 5.01-2.22 5.35-2.12 10.73-.96 2.55 3.93 3.38 5.83 1.92 10.81-1.53 5.23-4.76 7.99-9.27 10.54-.79-.12-1.59-.26-2.39-.37-3.67-.49-2.26-.37-6.32-.11-5.59 5.75-7.01 13.57-13.68 17.62-6.27-2.31-7.23-4.76-11.19-9.99 2.07-5.35 5.59-9.17 9.22-13.5"/><path fill="#1674B5" fill-opacity=".839" d="m2249.85 2112.33 1.58-4.35c10.42-6.89 35.15-38.29 44.13-39.59 4.36 3.95 4.5 7.77 6.11 13.28-12.39 9.79-31.22 28.69-46.69 32.25-1.71-.47-3.56-.78-5.13-1.59"/><path fill="#050502" fill-opacity=".086" d="M2124.13 2329.8c.99.14 1.97.42 2.96.43 9.96.11 29.24-27.05 36.89-34.76 3.88 5.83 4.85 5.44 11.29 7.39-16.08 9.12-27.28 27.36-38.12 41.91-6.11-4.85-11.24-7.06-13.02-14.97"/><path fill="#08080D" fill-opacity=".388" d="M1636.16 2410.39c8.96 24.5 3.38 59.46 5.33 85.81l-4.59-.92c-1.26-.01-2.53.16-3.78-.02-8.75-1.27-18.85-8.51-23.44-15.84l24.42 12.64c-.3-10.15-.83-19.98-2.27-30.06l2.51-2.16c4.06-13.57.69-32.42 1.65-47.04z"/><path fill="#13183F" fill-opacity=".439" d="m2146.64 2187.78 7.17 1.84c-18.31 16.37-45.87 36.72-51.23 61.69-.84-3-.75-1.76-.65-4.65.18-5.3.54-7.96-2.52-12.67 4.69-11.59 22.43-24.66 31.84-33.38 5.04-3.57 8.74-7.72 12.8-12.3z"/><path fill="#050502" fill-opacity=".035" d="M2167.28 2366.35c-.53 5.44-2.53 11.17.44 15.8 3.06-.16 3.7-.53 6.54.88l.29 4.36c-13.19 3.7-18.41 17.69-24.87 28.94-.42-5.66 1.35-13.73-1.12-18.75-1.29-2.63-6.48-3.31-9.19-4.17 7.7-3.14 10.88-5.97 16.06-12.44z"/><path fill="#050502" fill-opacity=".141" d="M1358.31 1325.54c.11 3.56.26 7.12.44 10.68 3.08 2.09 3.87 3.52 7.69 3.35 8.1-.35 16.74-.49 23.34 4.99-13.34-.06-38.19-6.21-48.34 1.86-2.45 5.23-2.74 10.52-3.34 16.18-.1-.92-.23-1.83-.31-2.74-.7-8.26-2.7-15.04 2.83-21.51l-1.25-1.99-12.28-2.23c-5.24-.91-9.86-1.07-14.2-4.5-.73-.57-1.32-1.3-1.98-1.95 11.89 1.93 29 6.58 40.81 4.13 4.16-.86 4.3-2.94 6.59-6.27"/><path fill="#08080D" fill-opacity=".255" d="M2301.67 2081.67c5.83 7.57 18.76-5.88 28.01-4.58-19.25 15.37-44.27 23.33-64.05 39.03l-11.14 1.37-5.54-2.81.9-2.35c1.57.81 3.42 1.12 5.13 1.59 15.47-3.56 34.3-22.46 46.69-32.25"/><path fill="#262075" fill-opacity=".976" d="m2753.61 1968.07 3.78-.99c1.49 1.34 3 2.66 4.42 4.08 4.62 4.62 5.66 7.67 5.74 14.13-2.69 4.88-3.26 5.08-8.27 7.61-5.85-.2-7.05-.43-12.07-3.41-2.34-5.34-2.45-5.99-1.51-11.74 1.87-1.74 4.96-4.01 6.26-6.15.68-1.11 1.1-2.35 1.65-3.53"/><path fill="#08080D" fill-opacity=".384" d="M1743.23 1193.4c4.78-4.53 7.9-4.94 14.41-5.67 3.26-.36 3.54-1.47 5.86-3.67 3.76 13.07 13.06 23.15 16.79 36.07-2.16 2.5-3.83 4.74-5.38 7.66-4.27-9.43-9.35-25.07-17.42-31.7-5.67-4.65-7.54-3.43-14.26-2.69"/><path fill="#613AA3" fill-opacity=".988" d="m2587.92 2091.42 3.91-2.07c5.78 5.95 11.85 12.36 11.88 21.25.01 6.1-3.33 10.78-7.75 14.54-1.31-1.82-2.58-3.68-3.93-5.47-10.86-14.39-.21-16.91-4.11-28.25"/><path fill="#050502" fill-opacity=".031" d="M2051.07 2468.13c4.84 3.22 9.6 6.44 14.19 10.03-2.34 8.67-5.67 17.72-5.23 26.77-5.09.09-8.23-2.71-14.08-2.63 5.17-12.03 5.56-21.35 5.12-34.17"/><path fill="#08080D" fill-opacity=".196" d="m1458.09 1180.39 5.16 3.37 2.47-.53 2.12-7.35c4.01-2.99 2.99-2.34 7.35-1.85-4.89 8.34-5.45 14.12-2.94 23.8 1.38 5.31 4.52 13.07 10.05 15.11 1.05.39 2.19.44 3.29.66-6.72 1.86-13.24 2.94-19.97 4.91-.43.12-.89.09-1.34.13 1.45-1.66 2.3-3.71 3.32-5.65-.86-11.73-4.35-21.57-10.85-31.34z"/><path fill="#13183F" fill-opacity=".592" d="m2199.28 2146.12 2.85 2.68c-5.3 3.08-11.4 5.57-14.23 11.27l2.3 2.98c-13.3 6.49-25.26 16.9-36.39 26.57l-7.17-1.84c14.01-15.68 35.13-29.92 52.64-41.66"/><path fill="#050502" fill-opacity=".11" d="M1772.52 1129.84c-.76-6.23-2.34-12.51.75-18.3 3.28-6.12 12.47-8.67 18.7-10.69-5.4 4.37-10.74 8.68-16.48 12.59 4.05 7 7.21 14.61 14.6 18.49 3.12-.22 5.49-.5 8.54-1.33-6.14 6.49-11.97 4.96-17.4 10.81l-7.57-9.48z"/><path fill="#129CDB" fill-opacity=".824" d="m2223.29 2124.94 3.08 4.01c-1.53 4.25-1.84 7.81-2.06 12.31-3.63 4.33-7.15 8.15-9.22 13.5l-8.09 2.48-4.87-8.44-2.85-2.68c10.1-6.2 18.24-10.49 24.01-21.18"/><path fill="#050502" fill-opacity=".263" d="m1710.41 1207.42 2.8-1.59 4.87 2.95 3.22-4.5 18.86 35.71-4.87-.26c-.28.78-.55 1.57-.84 2.35-1.11 2.92-.41 1.92-2.18 3.66-5.42-13.8-11.2-27.67-21.86-38.32"/><path fill="#13183F" fill-opacity=".647" d="M2064.51 909.8c3.33-1.488 4.6-3.092 8.18-1.922-5.65 13.47-13.33 25.827-20.74 38.375-.56-.299-1.08-.713-1.69-.898-4.11-1.252-7.69-1.408-11.7-3.338.64-.114 1.29-.171 1.91-.341 11.56-3.158 18.62-21.885 24.04-31.876"/><path fill="#2B398C" d="m2102.93 985.876 5.4 1.001 6.72 4.948 11.22 5.631 3.01 3.754-.69 4.03c-3.67 1.63-2.15 1.86-4.51.99-6.59-2.94-10.38-4.46-17.59-2.47l-2.74-2.39c-.3-3.745-1.1-7.414-1.78-11.108z"/><path fill="#262075" d="m2975.44 2130.43 1.53-13.35c3.63-4.79 3.64-5.99 9.4-7.28 4.88 2.56 6.67 4.31 9.54 9.01-6.68 6.75-11.22 9.6-20.47 11.62"/><path fill="#050502" fill-opacity=".016" d="M2012.79 903.962c6.37 2.096 11.4 4.033 16.9 7.907-1.71 4.459-3.56 8.776-4.31 13.52l.34 1.594c-9.52-.762-3.95-5.729-11.47-10.826z"/><path fill="#050502" fill-opacity=".227" d="M1814.96 703.107c7.78-4.633 16.09-8.226 24.3-12.024-2.91 10.713-15.6 18.448-24.26 25.012z"/><path fill="#050502" fill-opacity=".365" d="M1960.6 2285.53c.75-10.06 11.29-24.47 17.6-32.26l7.8 2.86c-8.13 10.17-16.1 20.24-25.4 29.4"/><path fill="#13183F" fill-opacity=".98" d="m1857.66 1203.35 4.62-3.79a982 982 0 0 1 16.6 31.67l-3.62 2.63a924 924 0 0 0-17.6-30.51"/></svg>